<svg xmlns="http://www.w3.org/2000/svg" xmlns:xlink="http://www.w3.org/1999/xlink" width="343.07" height="393.838" viewBox="0 0 343.07 393.838">
  <defs>
    <linearGradient id="linear-gradient" y1="0.495" x2="3.225" y2="0.495" gradientUnits="objectBoundingBox">
      <stop offset="0" stop-color="#fff"/>
      <stop offset="1" stop-color="#fff"/>
    </linearGradient>
    <linearGradient id="linear-gradient-2" x1="-1.017" y1="0.5" x2="1.99" y2="0.5" xlink:href="#linear-gradient"/>
    <linearGradient id="linear-gradient-3" x1="-2.261" y1="0.495" x2="1" y2="0.495" xlink:href="#linear-gradient"/>
    <linearGradient id="linear-gradient-4" x1="0" y1="0.5" x2="2.898" y2="0.5" xlink:href="#linear-gradient"/>
    <linearGradient id="linear-gradient-5" x1="-1.184" y1="0.606" x2="1.901" y2="0.606" xlink:href="#linear-gradient"/>
    <linearGradient id="linear-gradient-6" x1="-2.429" y1="0.611" x2="1" y2="0.611" xlink:href="#linear-gradient"/>
    <linearGradient id="linear-gradient-7" x1="-0.005" y1="1.765" x2="4.572" y2="1.765" xlink:href="#linear-gradient"/>
    <linearGradient id="linear-gradient-8" x1="-3.542" y1="1.553" x2="10.675" y2="1.553" xlink:href="#linear-gradient"/>
    <linearGradient id="linear-gradient-9" x1="-1.386" y1="1.748" x2="2.556" y2="1.748" xlink:href="#linear-gradient"/>
    <linearGradient id="linear-gradient-10" x1="-10.463" y1="1.228" x2="5.556" y2="1.228" xlink:href="#linear-gradient"/>
    <linearGradient id="linear-gradient-11" x1="-3.026" y1="1.748" x2="1" y2="1.748" xlink:href="#linear-gradient"/>
    <linearGradient id="linear-gradient-12" x1="0" y1="-0.997" x2="4.572" y2="-0.997" xlink:href="#linear-gradient"/>
    <linearGradient id="linear-gradient-13" x1="-3.525" y1="-0.442" x2="10.675" y2="-0.442" xlink:href="#linear-gradient"/>
    <linearGradient id="linear-gradient-14" x1="-1.381" y1="-0.973" x2="2.556" y2="-0.973" xlink:href="#linear-gradient"/>
    <linearGradient id="linear-gradient-15" x1="-10.444" y1="-0.691" x2="5.557" y2="-0.691" xlink:href="#linear-gradient"/>
    <linearGradient id="linear-gradient-16" x1="-3.021" y1="-0.973" x2="1" y2="-0.973" xlink:href="#linear-gradient"/>
    <linearGradient id="linear-gradient-27" x1="-5.197" y1="4.25" x2="3.097" y2="4.25" xlink:href="#linear-gradient"/>
    <linearGradient id="linear-gradient-28" x1="-9.239" y1="-2.051" x2="4.962" y2="-2.051" xlink:href="#linear-gradient"/>
    <linearGradient id="linear-gradient-29" y1="0.33" x2="6.454" y2="0.33" gradientUnits="objectBoundingBox">
      <stop offset="0" stop-color="#de0fa3"/>
      <stop offset="1" stop-color="#08b0df"/>
    </linearGradient>
    <linearGradient id="linear-gradient-30" x1="-1.017" y1="0.338" x2="5.002" y2="0.338" xlink:href="#linear-gradient-29"/>
    <linearGradient id="linear-gradient-31" x1="-2.261" y1="0.33" x2="4.266" y2="0.33" xlink:href="#linear-gradient-29"/>
    <linearGradient id="linear-gradient-38" x1="-2.996" y1="0.259" x2="2.916" y2="0.259" xlink:href="#linear-gradient-29"/>
    <linearGradient id="linear-gradient-39" x1="-4.375" y1="0.313" x2="1.921" y2="0.313" xlink:href="#linear-gradient-29"/>
    <linearGradient id="linear-gradient-40" x1="-5.975" y1="0.31" x2="1.021" y2="0.31" xlink:href="#linear-gradient-29"/>
    <linearGradient id="linear-gradient-47" x1="-0.005" y1="1.765" x2="4.572" y2="1.765" xlink:href="#linear-gradient-29"/>
    <linearGradient id="linear-gradient-48" x1="-3.542" y1="1.553" x2="10.675" y2="1.553" xlink:href="#linear-gradient-29"/>
    <linearGradient id="linear-gradient-49" x1="-1.386" y1="1.748" x2="2.556" y2="1.748" xlink:href="#linear-gradient-29"/>
    <linearGradient id="linear-gradient-50" x1="-10.463" y1="1.228" x2="5.556" y2="1.228" xlink:href="#linear-gradient-29"/>
    <linearGradient id="linear-gradient-51" x1="-3.026" y1="1.748" x2="1" y2="1.748" xlink:href="#linear-gradient-29"/>
    <linearGradient id="linear-gradient-52" x1="0" y1="-0.997" x2="4.572" y2="-0.997" xlink:href="#linear-gradient-29"/>
    <linearGradient id="linear-gradient-53" x1="-3.525" y1="-0.442" x2="10.675" y2="-0.442" xlink:href="#linear-gradient-29"/>
    <linearGradient id="linear-gradient-54" x1="-1.381" y1="-0.973" x2="2.556" y2="-0.973" xlink:href="#linear-gradient-29"/>
    <linearGradient id="linear-gradient-55" x1="-10.444" y1="-0.691" x2="5.557" y2="-0.691" xlink:href="#linear-gradient-29"/>
    <linearGradient id="linear-gradient-56" x1="-3.021" y1="-0.973" x2="1" y2="-0.973" xlink:href="#linear-gradient-29"/>
    <linearGradient id="linear-gradient-67" x1="-5.197" y1="4.25" x2="3.097" y2="4.25" xlink:href="#linear-gradient-29"/>
    <linearGradient id="linear-gradient-68" x1="-9.239" y1="-2.051" x2="4.962" y2="-2.051" xlink:href="#linear-gradient-29"/>
  </defs>
  <g id="Grupo_425" data-name="Grupo 425" transform="translate(-115.005 -82.111)">
    <g id="Grupo_375" data-name="Grupo 375">
      <g id="Grupo_360" data-name="Grupo 360">
        <g id="Grupo_359" data-name="Grupo 359">
          <g id="Grupo_356" data-name="Grupo 356">
            <path id="Trazado_374" data-name="Trazado 374" d="M122.434,316.332c-4.235,0-7.429-3-7.429-6.987a7.357,7.357,0,0,1,.363-2.33l10.7-40.075c1.127-4.166,3.86-6.278,8.122-6.278h14.934c11.208,0,19.036,7.069,19.036,17.189a23.2,23.2,0,0,1-.623,5.091c-2.556,10.793-12.043,16.975-26.027,16.975h-9.063l-2.923,10.944A7.5,7.5,0,0,1,122.434,316.332Zm6.128-48.72-10.72,40.145a4.949,4.949,0,0,0-.253,1.588c0,2.889,2.437,4.4,4.845,4.4a4.849,4.849,0,0,0,4.588-3.54l3.438-12.874h11.049c7.455,0,20.422-1.946,23.51-14.974a20.615,20.615,0,0,0,.555-4.508c0-8.735-6.611-14.6-16.451-14.6H134.189c-3.073,0-4.807,1.346-5.627,4.365Zm15.977,20.846H132.873l4.392-16.335h9.492c5.1,0,8.39,2.828,8.39,7.207a11.131,11.131,0,0,1-.325,2.35C153.61,286.074,149.964,288.458,144.539,288.458Zm-8.294-2.584h8.294c4.277,0,6.892-1.621,7.776-4.818a8.716,8.716,0,0,0,.247-1.726c0-2.894-2.171-4.623-5.8-4.623h-7.51Z" fill="url(#linear-gradient)"/>
          </g>
          <g id="Grupo_357" data-name="Grupo 357">
            <path id="Trazado_375" data-name="Trazado 375" d="M198.152,316.478c-14.821,0-25.173-10.047-25.173-24.432a35.691,35.691,0,0,1,.231-3.988A31.564,31.564,0,0,1,204.8,259.924c14.821,0,25.173,10.047,25.173,24.432a35.957,35.957,0,0,1-.23,3.988A31.566,31.566,0,0,1,198.152,316.478Zm6.653-53.97a29.008,29.008,0,0,0-29.029,25.849,33.39,33.39,0,0,0-.212,3.689c0,13.067,9.078,21.847,22.588,21.847a29.007,29.007,0,0,0,29.029-25.849,33.359,33.359,0,0,0,.212-3.688C227.393,271.288,218.315,262.508,204.8,262.508Zm-5.47,42.141c-8.075,0-13.714-5.76-13.714-14.008a14.572,14.572,0,0,1,.169-2.671c1.317-9.224,8.987-16.217,17.832-16.217,8.076,0,13.714,5.759,13.714,14.008a14.642,14.642,0,0,1-.165,2.647C215.837,297.669,208.174,304.649,199.335,304.649Zm4.287-30.312c-7.568,0-14.137,6.039-15.282,14.047a12.6,12.6,0,0,0-.134,2.257c0,6.833,4.472,11.423,11.129,11.423,7.569,0,14.138-6.039,15.282-14.047l.007-.048a12.331,12.331,0,0,0,.128-2.208C214.752,278.928,210.279,274.337,203.622,274.337Z" fill="url(#linear-gradient-2)"/>
          </g>
          <g id="Grupo_358" data-name="Grupo 358">
            <path id="Trazado_376" data-name="Trazado 376" d="M241.267,316.332a7.566,7.566,0,0,1-7.429-7.5,6.4,6.4,0,0,1,.273-1.835l10.713-40.049c1.129-4.171,3.862-6.283,8.124-6.283h14.417c11.742,0,19.036,6.076,19.036,15.858a24.043,24.043,0,0,1-.855,5.941c-1.987,7.594-8.058,12.3-17.621,13.7a100.224,100.224,0,0,1,6.023,9.275,7.53,7.53,0,0,1,1.141,3.838c0,3.707-3.436,6.838-7.5,6.838a7.889,7.889,0,0,1-6.722-3.871l-9.182-14.767c-.623,2.857-1.661,7-3.248,13.3A7.494,7.494,0,0,1,241.267,316.332Zm11.681-53.085c-3.074,0-4.809,1.348-5.628,4.37L236.6,307.683a3.931,3.931,0,0,0-.178,1.146,4.952,4.952,0,0,0,4.844,4.918,4.873,4.873,0,0,0,4.663-3.614c2.325-9.228,3.459-13.78,3.816-16.344l.493-3.537,12.825,20.628a5.252,5.252,0,0,0,4.523,2.645c2.375,0,4.917-1.71,4.917-4.254a5.037,5.037,0,0,0-.776-2.512c-3.3-5.573-5.748-9.169-7.272-10.7l-1.967-1.969,2.773-.232c9.924-.835,15.908-4.89,17.784-12.053a21.5,21.5,0,0,0,.771-5.29c0-8.311-6.151-13.273-16.452-13.273Zm11.459,24.473h-12.63l4.25-15.671h9.563c4.873,0,8.021,2.712,8.021,6.911a9.558,9.558,0,0,1-.341,2.557C272.22,285.456,268.989,287.72,264.407,287.72Zm-9.251-2.585h9.251c3.369,0,5.63-1.525,6.367-4.291a7.058,7.058,0,0,0,.253-1.884c0-2.75-1.983-4.327-5.437-4.327H258Z" fill="url(#linear-gradient-3)"/>
          </g>
        </g>
      </g>
      <g id="Grupo_365" data-name="Grupo 365">
        <g id="Grupo_364" data-name="Grupo 364">
          <g id="Grupo_361" data-name="Grupo 361">
            <path id="Trazado_377" data-name="Trazado 377" d="M314.418,329.921c-2.678,0-5.288-1.471-7.348-4.143l-10.548-13.72c-5.152-6.691-7.658-13.306-7.658-20.227a27.09,27.09,0,0,1,.626-6.132,31.325,31.325,0,0,1,31.122-24.434c12.924,0,26.29,9.308,26.29,24.888a28.909,28.909,0,0,1-.693,6.111c-2.513,11.6-12.618,23.35-27.071,23.35-.643,0-1.248-.016-1.821-.051l2.09,2.725a8.065,8.065,0,0,1,1.757,4.887A6.836,6.836,0,0,1,314.418,329.921Zm6.194-65.931A28.62,28.62,0,0,0,292.15,286.3a24.5,24.5,0,0,0-.56,5.536c0,6.3,2.321,12.368,7.092,18.564l10.547,13.72c1.532,1.986,3.375,3.081,5.189,3.081a4.076,4.076,0,0,0,4.021-4.021,5.425,5.425,0,0,0-1.209-3.247l-6.542-8.526,3.856,1.015a18.515,18.515,0,0,0,4.594.472c13.01,0,22.125-10.665,24.4-21.2a26.133,26.133,0,0,0,.634-5.536C344.177,272.28,332.2,263.99,320.612,263.99Zm-5.236,41.89c-9.6,0-13.9-6.907-13.9-13.752a16.909,16.909,0,0,1,.564-4.495c1.908-7.013,8.349-14.568,17.982-14.568,9.7,0,14.047,6.833,14.047,13.6a18.541,18.541,0,0,1-.634,4.626C331.482,298.558,325.142,305.88,315.376,305.88Zm4.647-30.09c-8.2,0-13.707,6.513-15.354,12.565a14.162,14.162,0,0,0-.467,3.773c0,5.33,2.935,11.026,11.174,11.026,8.324,0,13.745-6.308,15.425-12.56a15.7,15.7,0,0,0,.543-3.925C331.344,281.41,328.37,275.79,320.023,275.79Z" fill="url(#linear-gradient-4)"/>
          </g>
          <g id="Grupo_362" data-name="Grupo 362">
            <path id="Trazado_378" data-name="Trazado 378" d="M375.5,317.827c-13.624,0-22.086-7.417-22.086-19.358a31.053,31.053,0,0,1,1.231-8.407l6.266-23.218a7.554,7.554,0,0,1,7.14-5.506,7.417,7.417,0,0,1,7.41,7.41,6.947,6.947,0,0,1-.275,1.927l-5.818,21.8a17.805,17.805,0,0,0-.618,4.369c0,4.477,2.421,6.748,7.192,6.748,4.837,0,8.429-3.466,10.115-9.758l7.3-27a7.4,7.4,0,0,1,14.552,1.906,7.055,7.055,0,0,1-.273,1.923L401,295.5C397.174,309.9,388.116,317.827,375.5,317.827Zm-7.449-53.764a4.763,4.763,0,0,0-4.505,3.474l-6.274,23.249a28.422,28.422,0,0,0-1.132,7.683c0,10.415,7.237,16.632,19.36,16.632,11.268,0,19.392-7.209,22.873-20.3l6.638-24.857a4.332,4.332,0,0,0,.176-1.2,4.674,4.674,0,0,0-9.2-1.184l-7.3,26.984c-2,7.481-6.649,11.773-12.746,11.773-6.3,0-9.917-3.453-9.917-9.473a20.557,20.557,0,0,1,.708-5.065l5.827-21.838a4.285,4.285,0,0,0,.176-1.2A4.689,4.689,0,0,0,368.048,264.063Z" fill="url(#linear-gradient-5)"/>
          </g>
          <g id="Grupo_363" data-name="Grupo 363">
            <path id="Trazado_379" data-name="Trazado 379" d="M439.008,317.016H415.334c-4.594,0-7.336-2.412-7.336-6.452a10.253,10.253,0,0,1,.343-2.646l10.545-39.376c1.205-4.39,4.1-6.614,8.617-6.614H450a7.041,7.041,0,0,1,0,14.082H432.6l-1.766,6.495h10.091a6.893,6.893,0,1,1,0,13.787H427.148l-1.778,6.64h13.638a7.042,7.042,0,0,1,0,14.084ZM427.5,264.654c-3.267,0-5.114,1.42-5.985,4.6l-10.546,39.377a7.438,7.438,0,0,0-.248,1.932c0,2.472,1.55,3.726,4.61,3.726h23.674a4.316,4.316,0,1,0,0-8.632H421.817l3.241-12.091h15.868a4.168,4.168,0,1,0,0-8.337H427.269l3.249-11.945H450a4.316,4.316,0,1,0,0-8.631Z" fill="url(#linear-gradient-6)"/>
          </g>
        </g>
      </g>
      <g id="Grupo_374" data-name="Grupo 374">
        <g id="Grupo_366" data-name="Grupo 366">
          <path id="Trazado_380" data-name="Trazado 380" d="M338.21,340.658a12.079,12.079,0,1,1,12.08,12.081A12.114,12.114,0,0,1,338.21,340.658Z" fill="#fff"/>
        </g>
        <g id="Grupo_373" data-name="Grupo 373">
          <g id="Grupo_367" data-name="Grupo 367">
            <path id="Trazado_381" data-name="Trazado 381" d="M138.937,207.533l-22.623-56.4a11.975,11.975,0,0,1-.905-4.374c0-6.334,5.732-10.407,11.312-10.407a9.821,9.821,0,0,1,9.652,6.939c10.858,31.219,14.779,42.831,17.042,51.88,1.809-9.5,4.826-19.305,15.836-51.277,1.959-5.731,6.031-7.39,9.8-7.39,5.58,0,11.311,4.072,11.311,10.1a9.516,9.516,0,0,1-.754,3.922l-21.868,56.706a15.483,15.483,0,0,1-28.806.3Z" fill="url(#linear-gradient-7)"/>
            <path id="Trazado_382" data-name="Trazado 382" d="M200.472,117.345a12.065,12.065,0,1,1,12.065,12.065A12.1,12.1,0,0,1,200.472,117.345Zm1.357,29.56A10.449,10.449,0,0,1,212.537,136.2c5.429,0,10.707,3.772,10.707,10.709v59.572c0,6.937-5.278,10.709-10.707,10.709a10.441,10.441,0,0,1-10.708-10.709Z" fill="url(#linear-gradient-8)"/>
            <path id="Trazado_383" data-name="Trazado 383" d="M322.636,147.207v59.27c0,6.937-5.279,10.709-10.709,10.709s-10.859-3.772-10.859-10.709v-3.921c-3.921,9.35-14.327,15.081-27.449,15.081-23.828,0-38-18.7-38-41.173,0-23.376,14.93-40.871,39.212-40.871,9.8,0,20.209,4.375,26.241,13.122v-1.508c0-7.239,5.43-10.708,10.859-10.708C317.2,136.5,322.636,139.968,322.636,147.207Zm-21.718,29.408c0-12.367-9.049-21.566-21.717-21.566-12.819,0-22.02,9.049-22.02,21.566,0,12.82,9.2,21.869,22.02,21.869C291.869,198.484,300.918,189.134,300.918,176.615Z" fill="url(#linear-gradient-9)"/>
            <path id="Trazado_384" data-name="Trazado 384" d="M339.078,146.9A10.449,10.449,0,0,1,349.787,136.2c5.429,0,10.707,3.772,10.707,10.709v94.863c0,6.938-5.278,10.708-10.707,10.708a10.448,10.448,0,0,1-10.709-10.708Z" fill="url(#linear-gradient-10)"/>
            <path id="Trazado_385" data-name="Trazado 385" d="M372.864,176.615c0-23.677,17.8-41.022,42.53-41.022s42.681,17.345,42.681,41.022c0,23.83-17.947,41.022-42.681,41.022S372.864,200.445,372.864,176.615Zm64.4,0c0-12.517-9.2-21.717-21.869-21.717-12.518,0-21.717,9.2-21.717,21.717s9.2,21.718,21.717,21.718C428.062,198.333,437.263,189.134,437.263,176.615Z" fill="url(#linear-gradient-11)"/>
          </g>
          <g id="Grupo_372" data-name="Grupo 372">
            <g id="Grupo_371" data-name="Grupo 371">
              <g id="Grupo_368" data-name="Grupo 368">
                <path id="Trazado_386" data-name="Trazado 386" d="M138.56,430.953l-22.649-56.472A11.964,11.964,0,0,1,115,370.1c0-6.342,5.738-10.42,11.325-10.42a9.832,9.832,0,0,1,9.663,6.946c10.871,31.257,14.8,42.882,17.063,51.943,1.811-9.512,4.832-19.327,15.854-51.337,1.962-5.74,6.039-7.4,9.815-7.4,5.586,0,11.324,4.078,11.324,10.117a9.538,9.538,0,0,1-.755,3.928L167.4,430.65a15.5,15.5,0,0,1-28.84.3Z" fill="url(#linear-gradient-12)"/>
                <path id="Trazado_387" data-name="Trazado 387" d="M200.168,340.658a12.079,12.079,0,1,1,12.08,12.081A12.114,12.114,0,0,1,200.168,340.658Zm1.359,29.6a10.461,10.461,0,0,1,10.721-10.722c5.435,0,10.719,3.775,10.719,10.722V429.9c0,6.943-5.284,10.719-10.719,10.719A10.452,10.452,0,0,1,201.527,429.9Z" fill="url(#linear-gradient-13)"/>
                <path id="Trazado_388" data-name="Trazado 388" d="M322.476,370.557V429.9c0,6.943-5.286,10.719-10.721,10.719s-10.872-3.776-10.872-10.719V425.97c-3.926,9.361-14.344,15.1-27.481,15.1-23.857,0-38.05-18.725-38.05-41.223,0-23.4,14.948-40.918,39.258-40.918,9.815,0,20.234,4.378,26.273,13.137v-1.509c0-7.25,5.437-10.723,10.872-10.723C317.039,359.834,322.476,363.307,322.476,370.557ZM300.733,400c0-12.38-9.06-21.59-21.743-21.59-12.835,0-22.046,9.058-22.046,21.59,0,12.835,9.211,21.9,22.046,21.9C291.673,421.894,300.733,412.533,300.733,400Z" fill="url(#linear-gradient-14)"/>
                <path id="Trazado_389" data-name="Trazado 389" d="M338.938,370.254a10.461,10.461,0,0,1,10.721-10.722c5.435,0,10.72,3.775,10.72,10.722v94.975c0,6.947-5.285,10.72-10.72,10.72a10.459,10.459,0,0,1-10.721-10.72Z" fill="url(#linear-gradient-15)"/>
                <path id="Trazado_390" data-name="Trazado 390" d="M372.764,400c0-23.7,17.817-41.069,42.58-41.069S458.075,376.293,458.075,400c0,23.86-17.969,41.072-42.731,41.072S372.764,423.858,372.764,400Zm64.474,0c0-12.532-9.211-21.741-21.894-21.741-12.534,0-21.743,9.209-21.743,21.741s9.209,21.745,21.743,21.745C428.027,421.743,437.238,412.533,437.238,400Z" fill="url(#linear-gradient-16)"/>
              </g>
              <g id="Grupo_369" data-name="Grupo 369">
                <path id="Trazado_391" data-name="Trazado 391" d="M138.56,430.953l-22.649-56.472A11.964,11.964,0,0,1,115,370.1c0-6.342,5.738-10.42,11.325-10.42a9.832,9.832,0,0,1,9.663,6.946c10.871,31.257,14.8,42.882,17.063,51.943,1.811-9.512,4.832-19.327,15.854-51.337,1.962-5.74,6.039-7.4,9.815-7.4,5.586,0,11.324,4.078,11.324,10.117a9.538,9.538,0,0,1-.755,3.928L167.4,430.65a15.5,15.5,0,0,1-28.84.3Z" fill="url(#linear-gradient-12)"/>
                <path id="Trazado_392" data-name="Trazado 392" d="M200.168,340.658a12.079,12.079,0,1,1,12.08,12.081A12.114,12.114,0,0,1,200.168,340.658Zm1.359,29.6a10.461,10.461,0,0,1,10.721-10.722c5.435,0,10.719,3.775,10.719,10.722V429.9c0,6.943-5.284,10.719-10.719,10.719A10.452,10.452,0,0,1,201.527,429.9Z" fill="url(#linear-gradient-13)"/>
                <path id="Trazado_393" data-name="Trazado 393" d="M322.476,370.557V429.9c0,6.943-5.286,10.719-10.721,10.719s-10.872-3.776-10.872-10.719V425.97c-3.926,9.361-14.344,15.1-27.481,15.1-23.857,0-38.05-18.725-38.05-41.223,0-23.4,14.948-40.918,39.258-40.918,9.815,0,20.234,4.378,26.273,13.137v-1.509c0-7.25,5.437-10.723,10.872-10.723C317.039,359.834,322.476,363.307,322.476,370.557ZM300.733,400c0-12.38-9.06-21.59-21.743-21.59-12.835,0-22.046,9.058-22.046,21.59,0,12.835,9.211,21.9,22.046,21.9C291.673,421.894,300.733,412.533,300.733,400Z" fill="url(#linear-gradient-14)"/>
                <path id="Trazado_394" data-name="Trazado 394" d="M338.938,370.254a10.461,10.461,0,0,1,10.721-10.722c5.435,0,10.72,3.775,10.72,10.722v94.975c0,6.947-5.285,10.72-10.72,10.72a10.459,10.459,0,0,1-10.721-10.72Z" fill="url(#linear-gradient-15)"/>
                <path id="Trazado_395" data-name="Trazado 395" d="M372.764,400c0-23.7,17.817-41.069,42.58-41.069S458.075,376.293,458.075,400c0,23.86-17.969,41.072-42.731,41.072S372.764,423.858,372.764,400Zm64.474,0c0-12.532-9.211-21.741-21.894-21.741-12.534,0-21.743,9.209-21.743,21.741s9.209,21.745,21.743,21.745C428.027,421.743,437.238,412.533,437.238,400Z" fill="url(#linear-gradient-16)"/>
              </g>
              <g id="Grupo_370" data-name="Grupo 370">
                <path id="Trazado_396" data-name="Trazado 396" d="M138.56,430.953l-22.649-56.472A11.964,11.964,0,0,1,115,370.1c0-6.342,5.738-10.42,11.325-10.42a9.832,9.832,0,0,1,9.663,6.946c10.871,31.257,14.8,42.882,17.063,51.943,1.811-9.512,4.832-19.327,15.854-51.337,1.962-5.74,6.039-7.4,9.815-7.4,5.586,0,11.324,4.078,11.324,10.117a9.538,9.538,0,0,1-.755,3.928L167.4,430.65a15.5,15.5,0,0,1-28.84.3Z" fill="url(#linear-gradient-12)"/>
                <path id="Trazado_397" data-name="Trazado 397" d="M200.168,340.658a12.079,12.079,0,1,1,12.08,12.081A12.114,12.114,0,0,1,200.168,340.658Zm1.359,29.6a10.461,10.461,0,0,1,10.721-10.722c5.435,0,10.719,3.775,10.719,10.722V429.9c0,6.943-5.284,10.719-10.719,10.719A10.452,10.452,0,0,1,201.527,429.9Z" fill="url(#linear-gradient-13)"/>
                <path id="Trazado_398" data-name="Trazado 398" d="M322.476,370.557V429.9c0,6.943-5.286,10.719-10.721,10.719s-10.872-3.776-10.872-10.719V425.97c-3.926,9.361-14.344,15.1-27.481,15.1-23.857,0-38.05-18.725-38.05-41.223,0-23.4,14.948-40.918,39.258-40.918,9.815,0,20.234,4.378,26.273,13.137v-1.509c0-7.25,5.437-10.723,10.872-10.723C317.039,359.834,322.476,363.307,322.476,370.557ZM300.733,400c0-12.38-9.06-21.59-21.743-21.59-12.835,0-22.046,9.058-22.046,21.59,0,12.835,9.211,21.9,22.046,21.9C291.673,421.894,300.733,412.533,300.733,400Z" fill="url(#linear-gradient-14)"/>
                <path id="Trazado_399" data-name="Trazado 399" d="M338.938,370.254a10.461,10.461,0,0,1,10.721-10.722c5.435,0,10.72,3.775,10.72,10.722v94.975c0,6.947-5.285,10.72-10.72,10.72a10.459,10.459,0,0,1-10.721-10.72Z" fill="url(#linear-gradient-15)"/>
                <path id="Trazado_400" data-name="Trazado 400" d="M372.764,400c0-23.7,17.817-41.069,42.58-41.069S458.075,376.293,458.075,400c0,23.86-17.969,41.072-42.731,41.072S372.764,423.858,372.764,400Zm64.474,0c0-12.532-9.211-21.741-21.894-21.741-12.534,0-21.743,9.209-21.743,21.741s9.209,21.745,21.743,21.745C428.027,421.743,437.238,412.533,437.238,400Z" fill="url(#linear-gradient-16)"/>
              </g>
            </g>
          </g>
          <path id="Trazado_401" data-name="Trazado 401" d="M350.613,82.111c-12,0-20.631,8.42-20.631,19.9a20.6,20.6,0,0,0,1.427,7.723h-.139l.313.417a18.339,18.339,0,0,0,5.01,6.854,19.58,19.58,0,0,0,7.09,3.858l4.79,6.55a2.524,2.524,0,0,0,4.074,0l4.728-6.454a20.192,20.192,0,0,0,6.768-3.4,19.278,19.278,0,0,0,7.306-15.551C371.349,90.531,362.616,82.111,350.613,82.111Zm7.48,27.624a10.613,10.613,0,0,1-7.48,2.853,10.5,10.5,0,0,1-7.41-2.853,10.646,10.646,0,0,1-3.131-7.723,10.594,10.594,0,0,1,21.187,0A10.534,10.534,0,0,1,358.093,109.735Z" fill="url(#linear-gradient-27)"/>
          <path id="Trazado_402" data-name="Trazado 402" d="M338.21,340.658a12.079,12.079,0,1,1,12.08,12.081A12.114,12.114,0,0,1,338.21,340.658Z" fill="url(#linear-gradient-28)"/>
        </g>
      </g>
    </g>
    <g id="Grupo_424" data-name="Grupo 424">
      <g id="Grupo_388" data-name="Grupo 388">
        <g id="Grupo_379" data-name="Grupo 379">
          <g id="Grupo_376" data-name="Grupo 376">
            <path id="Trazado_403" data-name="Trazado 403" d="M122.434,316.332c-4.235,0-7.429-3-7.429-6.987a7.357,7.357,0,0,1,.363-2.33l10.7-40.075c1.127-4.166,3.86-6.278,8.122-6.278h14.934c11.208,0,19.036,7.069,19.036,17.189a23.2,23.2,0,0,1-.623,5.091c-2.556,10.793-12.043,16.975-26.027,16.975h-9.063l-2.923,10.944A7.5,7.5,0,0,1,122.434,316.332Zm6.128-48.72-10.72,40.145a4.949,4.949,0,0,0-.253,1.588c0,2.889,2.437,4.4,4.845,4.4a4.849,4.849,0,0,0,4.588-3.54l3.438-12.874h11.049c7.455,0,20.422-1.946,23.51-14.974a20.615,20.615,0,0,0,.555-4.508c0-8.735-6.611-14.6-16.451-14.6H134.189c-3.073,0-4.807,1.346-5.627,4.365Zm15.977,20.846H132.873l4.392-16.335h9.492c5.1,0,8.39,2.828,8.39,7.207a11.131,11.131,0,0,1-.325,2.35C153.61,286.074,149.964,288.458,144.539,288.458Zm-8.294-2.584h8.294c4.277,0,6.892-1.621,7.776-4.818a8.716,8.716,0,0,0,.247-1.726c0-2.894-2.171-4.623-5.8-4.623h-7.51Z" fill="url(#linear-gradient-29)"/>
          </g>
          <g id="Grupo_377" data-name="Grupo 377">
            <path id="Trazado_404" data-name="Trazado 404" d="M198.152,316.478c-14.821,0-25.173-10.047-25.173-24.432a35.691,35.691,0,0,1,.231-3.988A31.564,31.564,0,0,1,204.8,259.924c14.821,0,25.173,10.047,25.173,24.432a35.957,35.957,0,0,1-.23,3.988A31.566,31.566,0,0,1,198.152,316.478Zm6.653-53.97a29.008,29.008,0,0,0-29.029,25.849,33.39,33.39,0,0,0-.212,3.689c0,13.067,9.078,21.847,22.588,21.847a29.007,29.007,0,0,0,29.029-25.849,33.359,33.359,0,0,0,.212-3.688C227.393,271.288,218.315,262.508,204.8,262.508Zm-5.47,42.141c-8.075,0-13.714-5.76-13.714-14.008a14.572,14.572,0,0,1,.169-2.671c1.317-9.224,8.987-16.217,17.832-16.217,8.076,0,13.714,5.759,13.714,14.008a14.642,14.642,0,0,1-.165,2.647C215.837,297.669,208.174,304.649,199.335,304.649Zm4.287-30.312c-7.568,0-14.137,6.039-15.282,14.047a12.6,12.6,0,0,0-.134,2.257c0,6.833,4.472,11.423,11.129,11.423,7.569,0,14.138-6.039,15.282-14.047l.007-.048a12.331,12.331,0,0,0,.128-2.208C214.752,278.928,210.279,274.337,203.622,274.337Z" fill="url(#linear-gradient-30)"/>
          </g>
          <g id="Grupo_378" data-name="Grupo 378">
            <path id="Trazado_405" data-name="Trazado 405" d="M241.267,316.332a7.566,7.566,0,0,1-7.429-7.5,6.4,6.4,0,0,1,.273-1.835l10.713-40.049c1.129-4.171,3.862-6.283,8.124-6.283h14.417c11.742,0,19.036,6.076,19.036,15.858a24.043,24.043,0,0,1-.855,5.941c-1.987,7.594-8.058,12.3-17.621,13.7a100.224,100.224,0,0,1,6.023,9.275,7.53,7.53,0,0,1,1.141,3.838c0,3.707-3.436,6.838-7.5,6.838a7.889,7.889,0,0,1-6.722-3.871l-9.182-14.767c-.623,2.857-1.661,7-3.248,13.3A7.494,7.494,0,0,1,241.267,316.332Zm11.681-53.085c-3.074,0-4.809,1.348-5.628,4.37L236.6,307.683a3.931,3.931,0,0,0-.178,1.146,4.952,4.952,0,0,0,4.844,4.918,4.873,4.873,0,0,0,4.663-3.614c2.325-9.228,3.459-13.78,3.816-16.344l.493-3.537,12.825,20.628a5.252,5.252,0,0,0,4.523,2.645c2.375,0,4.917-1.71,4.917-4.254a5.037,5.037,0,0,0-.776-2.512c-3.3-5.573-5.748-9.169-7.272-10.7l-1.967-1.969,2.773-.232c9.924-.835,15.908-4.89,17.784-12.053a21.5,21.5,0,0,0,.771-5.29c0-8.311-6.151-13.273-16.452-13.273Zm11.459,24.473h-12.63l4.25-15.671h9.563c4.873,0,8.021,2.712,8.021,6.911a9.558,9.558,0,0,1-.341,2.557C272.22,285.456,268.989,287.72,264.407,287.72Zm-9.251-2.585h9.251c3.369,0,5.63-1.525,6.367-4.291a7.058,7.058,0,0,0,.253-1.884c0-2.75-1.983-4.327-5.437-4.327H258Z" fill="url(#linear-gradient-31)"/>
          </g>
        </g>
        <g id="Grupo_383" data-name="Grupo 383">
          <g id="Grupo_380" data-name="Grupo 380">
            <path id="Trazado_406" data-name="Trazado 406" d="M122.434,316.332c-4.235,0-7.429-3-7.429-6.987a7.357,7.357,0,0,1,.363-2.33l10.7-40.075c1.127-4.166,3.86-6.278,8.122-6.278h14.934c11.208,0,19.036,7.069,19.036,17.189a23.2,23.2,0,0,1-.623,5.091c-2.556,10.793-12.043,16.975-26.027,16.975h-9.063l-2.923,10.944A7.5,7.5,0,0,1,122.434,316.332Zm6.128-48.72-10.72,40.145a4.949,4.949,0,0,0-.253,1.588c0,2.889,2.437,4.4,4.845,4.4a4.849,4.849,0,0,0,4.588-3.54l3.438-12.874h11.049c7.455,0,20.422-1.946,23.51-14.974a20.615,20.615,0,0,0,.555-4.508c0-8.735-6.611-14.6-16.451-14.6H134.189c-3.073,0-4.807,1.346-5.627,4.365Zm15.977,20.846H132.873l4.392-16.335h9.492c5.1,0,8.39,2.828,8.39,7.207a11.131,11.131,0,0,1-.325,2.35C153.61,286.074,149.964,288.458,144.539,288.458Zm-8.294-2.584h8.294c4.277,0,6.892-1.621,7.776-4.818a8.716,8.716,0,0,0,.247-1.726c0-2.894-2.171-4.623-5.8-4.623h-7.51Z" fill="url(#linear-gradient-29)"/>
          </g>
          <g id="Grupo_381" data-name="Grupo 381">
            <path id="Trazado_407" data-name="Trazado 407" d="M198.152,316.478c-14.821,0-25.173-10.047-25.173-24.432a35.691,35.691,0,0,1,.231-3.988A31.564,31.564,0,0,1,204.8,259.924c14.821,0,25.173,10.047,25.173,24.432a35.957,35.957,0,0,1-.23,3.988A31.566,31.566,0,0,1,198.152,316.478Zm6.653-53.97a29.008,29.008,0,0,0-29.029,25.849,33.39,33.39,0,0,0-.212,3.689c0,13.067,9.078,21.847,22.588,21.847a29.007,29.007,0,0,0,29.029-25.849,33.359,33.359,0,0,0,.212-3.688C227.393,271.288,218.315,262.508,204.8,262.508Zm-5.47,42.141c-8.075,0-13.714-5.76-13.714-14.008a14.572,14.572,0,0,1,.169-2.671c1.317-9.224,8.987-16.217,17.832-16.217,8.076,0,13.714,5.759,13.714,14.008a14.642,14.642,0,0,1-.165,2.647C215.837,297.669,208.174,304.649,199.335,304.649Zm4.287-30.312c-7.568,0-14.137,6.039-15.282,14.047a12.6,12.6,0,0,0-.134,2.257c0,6.833,4.472,11.423,11.129,11.423,7.569,0,14.138-6.039,15.282-14.047l.007-.048a12.331,12.331,0,0,0,.128-2.208C214.752,278.928,210.279,274.337,203.622,274.337Z" fill="url(#linear-gradient-30)"/>
          </g>
          <g id="Grupo_382" data-name="Grupo 382">
            <path id="Trazado_408" data-name="Trazado 408" d="M241.267,316.332a7.566,7.566,0,0,1-7.429-7.5,6.4,6.4,0,0,1,.273-1.835l10.713-40.049c1.129-4.171,3.862-6.283,8.124-6.283h14.417c11.742,0,19.036,6.076,19.036,15.858a24.043,24.043,0,0,1-.855,5.941c-1.987,7.594-8.058,12.3-17.621,13.7a100.224,100.224,0,0,1,6.023,9.275,7.53,7.53,0,0,1,1.141,3.838c0,3.707-3.436,6.838-7.5,6.838a7.889,7.889,0,0,1-6.722-3.871l-9.182-14.767c-.623,2.857-1.661,7-3.248,13.3A7.494,7.494,0,0,1,241.267,316.332Zm11.681-53.085c-3.074,0-4.809,1.348-5.628,4.37L236.6,307.683a3.931,3.931,0,0,0-.178,1.146,4.952,4.952,0,0,0,4.844,4.918,4.873,4.873,0,0,0,4.663-3.614c2.325-9.228,3.459-13.78,3.816-16.344l.493-3.537,12.825,20.628a5.252,5.252,0,0,0,4.523,2.645c2.375,0,4.917-1.71,4.917-4.254a5.037,5.037,0,0,0-.776-2.512c-3.3-5.573-5.748-9.169-7.272-10.7l-1.967-1.969,2.773-.232c9.924-.835,15.908-4.89,17.784-12.053a21.5,21.5,0,0,0,.771-5.29c0-8.311-6.151-13.273-16.452-13.273Zm11.459,24.473h-12.63l4.25-15.671h9.563c4.873,0,8.021,2.712,8.021,6.911a9.558,9.558,0,0,1-.341,2.557C272.22,285.456,268.989,287.72,264.407,287.72Zm-9.251-2.585h9.251c3.369,0,5.63-1.525,6.367-4.291a7.058,7.058,0,0,0,.253-1.884c0-2.75-1.983-4.327-5.437-4.327H258Z" fill="url(#linear-gradient-31)"/>
          </g>
        </g>
        <g id="Grupo_387" data-name="Grupo 387">
          <g id="Grupo_384" data-name="Grupo 384">
            <path id="Trazado_409" data-name="Trazado 409" d="M122.434,316.332c-4.235,0-7.429-3-7.429-6.987a7.357,7.357,0,0,1,.363-2.33l10.7-40.075c1.127-4.166,3.86-6.278,8.122-6.278h14.934c11.208,0,19.036,7.069,19.036,17.189a23.2,23.2,0,0,1-.623,5.091c-2.556,10.793-12.043,16.975-26.027,16.975h-9.063l-2.923,10.944A7.5,7.5,0,0,1,122.434,316.332Zm6.128-48.72-10.72,40.145a4.949,4.949,0,0,0-.253,1.588c0,2.889,2.437,4.4,4.845,4.4a4.849,4.849,0,0,0,4.588-3.54l3.438-12.874h11.049c7.455,0,20.422-1.946,23.51-14.974a20.615,20.615,0,0,0,.555-4.508c0-8.735-6.611-14.6-16.451-14.6H134.189c-3.073,0-4.807,1.346-5.627,4.365Zm15.977,20.846H132.873l4.392-16.335h9.492c5.1,0,8.39,2.828,8.39,7.207a11.131,11.131,0,0,1-.325,2.35C153.61,286.074,149.964,288.458,144.539,288.458Zm-8.294-2.584h8.294c4.277,0,6.892-1.621,7.776-4.818a8.716,8.716,0,0,0,.247-1.726c0-2.894-2.171-4.623-5.8-4.623h-7.51Z" fill="url(#linear-gradient-29)"/>
          </g>
          <g id="Grupo_385" data-name="Grupo 385">
            <path id="Trazado_410" data-name="Trazado 410" d="M198.152,316.478c-14.821,0-25.173-10.047-25.173-24.432a35.691,35.691,0,0,1,.231-3.988A31.564,31.564,0,0,1,204.8,259.924c14.821,0,25.173,10.047,25.173,24.432a35.957,35.957,0,0,1-.23,3.988A31.566,31.566,0,0,1,198.152,316.478Zm6.653-53.97a29.008,29.008,0,0,0-29.029,25.849,33.39,33.39,0,0,0-.212,3.689c0,13.067,9.078,21.847,22.588,21.847a29.007,29.007,0,0,0,29.029-25.849,33.359,33.359,0,0,0,.212-3.688C227.393,271.288,218.315,262.508,204.8,262.508Zm-5.47,42.141c-8.075,0-13.714-5.76-13.714-14.008a14.572,14.572,0,0,1,.169-2.671c1.317-9.224,8.987-16.217,17.832-16.217,8.076,0,13.714,5.759,13.714,14.008a14.642,14.642,0,0,1-.165,2.647C215.837,297.669,208.174,304.649,199.335,304.649Zm4.287-30.312c-7.568,0-14.137,6.039-15.282,14.047a12.6,12.6,0,0,0-.134,2.257c0,6.833,4.472,11.423,11.129,11.423,7.569,0,14.138-6.039,15.282-14.047l.007-.048a12.331,12.331,0,0,0,.128-2.208C214.752,278.928,210.279,274.337,203.622,274.337Z" fill="url(#linear-gradient-30)"/>
          </g>
          <g id="Grupo_386" data-name="Grupo 386">
            <path id="Trazado_411" data-name="Trazado 411" d="M241.267,316.332a7.566,7.566,0,0,1-7.429-7.5,6.4,6.4,0,0,1,.273-1.835l10.713-40.049c1.129-4.171,3.862-6.283,8.124-6.283h14.417c11.742,0,19.036,6.076,19.036,15.858a24.043,24.043,0,0,1-.855,5.941c-1.987,7.594-8.058,12.3-17.621,13.7a100.224,100.224,0,0,1,6.023,9.275,7.53,7.53,0,0,1,1.141,3.838c0,3.707-3.436,6.838-7.5,6.838a7.889,7.889,0,0,1-6.722-3.871l-9.182-14.767c-.623,2.857-1.661,7-3.248,13.3A7.494,7.494,0,0,1,241.267,316.332Zm11.681-53.085c-3.074,0-4.809,1.348-5.628,4.37L236.6,307.683a3.931,3.931,0,0,0-.178,1.146,4.952,4.952,0,0,0,4.844,4.918,4.873,4.873,0,0,0,4.663-3.614c2.325-9.228,3.459-13.78,3.816-16.344l.493-3.537,12.825,20.628a5.252,5.252,0,0,0,4.523,2.645c2.375,0,4.917-1.71,4.917-4.254a5.037,5.037,0,0,0-.776-2.512c-3.3-5.573-5.748-9.169-7.272-10.7l-1.967-1.969,2.773-.232c9.924-.835,15.908-4.89,17.784-12.053a21.5,21.5,0,0,0,.771-5.29c0-8.311-6.151-13.273-16.452-13.273Zm11.459,24.473h-12.63l4.25-15.671h9.563c4.873,0,8.021,2.712,8.021,6.911a9.558,9.558,0,0,1-.341,2.557C272.22,285.456,268.989,287.72,264.407,287.72Zm-9.251-2.585h9.251c3.369,0,5.63-1.525,6.367-4.291a7.058,7.058,0,0,0,.253-1.884c0-2.75-1.983-4.327-5.437-4.327H258Z" fill="url(#linear-gradient-31)"/>
          </g>
        </g>
      </g>
      <g id="Grupo_401" data-name="Grupo 401">
        <g id="Grupo_392" data-name="Grupo 392">
          <g id="Grupo_389" data-name="Grupo 389">
            <path id="Trazado_412" data-name="Trazado 412" d="M314.418,329.921c-2.678,0-5.288-1.471-7.348-4.143l-10.548-13.72c-5.152-6.691-7.658-13.306-7.658-20.227a27.09,27.09,0,0,1,.626-6.132,31.325,31.325,0,0,1,31.122-24.434c12.924,0,26.29,9.308,26.29,24.888a28.909,28.909,0,0,1-.693,6.111c-2.513,11.6-12.618,23.35-27.071,23.35-.643,0-1.248-.016-1.821-.051l2.09,2.725a8.065,8.065,0,0,1,1.757,4.887A6.836,6.836,0,0,1,314.418,329.921Zm6.194-65.931A28.62,28.62,0,0,0,292.15,286.3a24.5,24.5,0,0,0-.56,5.536c0,6.3,2.321,12.368,7.092,18.564l10.547,13.72c1.532,1.986,3.375,3.081,5.189,3.081a4.076,4.076,0,0,0,4.021-4.021,5.425,5.425,0,0,0-1.209-3.247l-6.542-8.526,3.856,1.015a18.515,18.515,0,0,0,4.594.472c13.01,0,22.125-10.665,24.4-21.2a26.133,26.133,0,0,0,.634-5.536C344.177,272.28,332.2,263.99,320.612,263.99Zm-5.236,41.89c-9.6,0-13.9-6.907-13.9-13.752a16.909,16.909,0,0,1,.564-4.495c1.908-7.013,8.349-14.568,17.982-14.568,9.7,0,14.047,6.833,14.047,13.6a18.541,18.541,0,0,1-.634,4.626C331.482,298.558,325.142,305.88,315.376,305.88Zm4.647-30.09c-8.2,0-13.707,6.513-15.354,12.565a14.162,14.162,0,0,0-.467,3.773c0,5.33,2.935,11.026,11.174,11.026,8.324,0,13.745-6.308,15.425-12.56a15.7,15.7,0,0,0,.543-3.925C331.344,281.41,328.37,275.79,320.023,275.79Z" fill="url(#linear-gradient-38)"/>
          </g>
          <g id="Grupo_390" data-name="Grupo 390">
            <path id="Trazado_413" data-name="Trazado 413" d="M375.5,317.827c-13.624,0-22.086-7.417-22.086-19.358a31.053,31.053,0,0,1,1.231-8.407l6.266-23.218a7.554,7.554,0,0,1,7.14-5.506,7.417,7.417,0,0,1,7.41,7.41,6.947,6.947,0,0,1-.275,1.927l-5.818,21.8a17.805,17.805,0,0,0-.618,4.369c0,4.477,2.421,6.748,7.192,6.748,4.837,0,8.429-3.466,10.115-9.758l7.3-27a7.4,7.4,0,0,1,14.552,1.906,7.055,7.055,0,0,1-.273,1.923L401,295.5C397.174,309.9,388.116,317.827,375.5,317.827Zm-7.449-53.764a4.763,4.763,0,0,0-4.505,3.474l-6.274,23.249a28.422,28.422,0,0,0-1.132,7.683c0,10.415,7.237,16.632,19.36,16.632,11.268,0,19.392-7.209,22.873-20.3l6.638-24.857a4.332,4.332,0,0,0,.176-1.2,4.674,4.674,0,0,0-9.2-1.184l-7.3,26.984c-2,7.481-6.649,11.773-12.746,11.773-6.3,0-9.917-3.453-9.917-9.473a20.557,20.557,0,0,1,.708-5.065l5.827-21.838a4.285,4.285,0,0,0,.176-1.2A4.689,4.689,0,0,0,368.048,264.063Z" fill="url(#linear-gradient-39)"/>
          </g>
          <g id="Grupo_391" data-name="Grupo 391">
            <path id="Trazado_414" data-name="Trazado 414" d="M439.008,317.016H415.334c-4.594,0-7.336-2.412-7.336-6.452a10.253,10.253,0,0,1,.343-2.646l10.545-39.376c1.205-4.39,4.1-6.614,8.617-6.614H450a7.041,7.041,0,0,1,0,14.082H432.6l-1.766,6.495h10.091a6.893,6.893,0,1,1,0,13.787H427.148l-1.778,6.64h13.638a7.042,7.042,0,0,1,0,14.084ZM427.5,264.654c-3.267,0-5.114,1.42-5.985,4.6l-10.546,39.377a7.438,7.438,0,0,0-.248,1.932c0,2.472,1.55,3.726,4.61,3.726h23.674a4.316,4.316,0,1,0,0-8.632H421.817l3.241-12.091h15.868a4.168,4.168,0,1,0,0-8.337H427.269l3.249-11.945H450a4.316,4.316,0,1,0,0-8.631Z" fill="url(#linear-gradient-40)"/>
          </g>
        </g>
        <g id="Grupo_396" data-name="Grupo 396">
          <g id="Grupo_393" data-name="Grupo 393">
            <path id="Trazado_415" data-name="Trazado 415" d="M314.418,329.921c-2.678,0-5.288-1.471-7.348-4.143l-10.548-13.72c-5.152-6.691-7.658-13.306-7.658-20.227a27.09,27.09,0,0,1,.626-6.132,31.325,31.325,0,0,1,31.122-24.434c12.924,0,26.29,9.308,26.29,24.888a28.909,28.909,0,0,1-.693,6.111c-2.513,11.6-12.618,23.35-27.071,23.35-.643,0-1.248-.016-1.821-.051l2.09,2.725a8.065,8.065,0,0,1,1.757,4.887A6.836,6.836,0,0,1,314.418,329.921Zm6.194-65.931A28.62,28.62,0,0,0,292.15,286.3a24.5,24.5,0,0,0-.56,5.536c0,6.3,2.321,12.368,7.092,18.564l10.547,13.72c1.532,1.986,3.375,3.081,5.189,3.081a4.076,4.076,0,0,0,4.021-4.021,5.425,5.425,0,0,0-1.209-3.247l-6.542-8.526,3.856,1.015a18.515,18.515,0,0,0,4.594.472c13.01,0,22.125-10.665,24.4-21.2a26.133,26.133,0,0,0,.634-5.536C344.177,272.28,332.2,263.99,320.612,263.99Zm-5.236,41.89c-9.6,0-13.9-6.907-13.9-13.752a16.909,16.909,0,0,1,.564-4.495c1.908-7.013,8.349-14.568,17.982-14.568,9.7,0,14.047,6.833,14.047,13.6a18.541,18.541,0,0,1-.634,4.626C331.482,298.558,325.142,305.88,315.376,305.88Zm4.647-30.09c-8.2,0-13.707,6.513-15.354,12.565a14.162,14.162,0,0,0-.467,3.773c0,5.33,2.935,11.026,11.174,11.026,8.324,0,13.745-6.308,15.425-12.56a15.7,15.7,0,0,0,.543-3.925C331.344,281.41,328.37,275.79,320.023,275.79Z" fill="url(#linear-gradient-38)"/>
          </g>
          <g id="Grupo_394" data-name="Grupo 394">
            <path id="Trazado_416" data-name="Trazado 416" d="M375.5,317.827c-13.624,0-22.086-7.417-22.086-19.358a31.053,31.053,0,0,1,1.231-8.407l6.266-23.218a7.554,7.554,0,0,1,7.14-5.506,7.417,7.417,0,0,1,7.41,7.41,6.947,6.947,0,0,1-.275,1.927l-5.818,21.8a17.805,17.805,0,0,0-.618,4.369c0,4.477,2.421,6.748,7.192,6.748,4.837,0,8.429-3.466,10.115-9.758l7.3-27a7.4,7.4,0,0,1,14.552,1.906,7.055,7.055,0,0,1-.273,1.923L401,295.5C397.174,309.9,388.116,317.827,375.5,317.827Zm-7.449-53.764a4.763,4.763,0,0,0-4.505,3.474l-6.274,23.249a28.422,28.422,0,0,0-1.132,7.683c0,10.415,7.237,16.632,19.36,16.632,11.268,0,19.392-7.209,22.873-20.3l6.638-24.857a4.332,4.332,0,0,0,.176-1.2,4.674,4.674,0,0,0-9.2-1.184l-7.3,26.984c-2,7.481-6.649,11.773-12.746,11.773-6.3,0-9.917-3.453-9.917-9.473a20.557,20.557,0,0,1,.708-5.065l5.827-21.838a4.285,4.285,0,0,0,.176-1.2A4.689,4.689,0,0,0,368.048,264.063Z" fill="url(#linear-gradient-39)"/>
          </g>
          <g id="Grupo_395" data-name="Grupo 395">
            <path id="Trazado_417" data-name="Trazado 417" d="M439.008,317.016H415.334c-4.594,0-7.336-2.412-7.336-6.452a10.253,10.253,0,0,1,.343-2.646l10.545-39.376c1.205-4.39,4.1-6.614,8.617-6.614H450a7.041,7.041,0,0,1,0,14.082H432.6l-1.766,6.495h10.091a6.893,6.893,0,1,1,0,13.787H427.148l-1.778,6.64h13.638a7.042,7.042,0,0,1,0,14.084ZM427.5,264.654c-3.267,0-5.114,1.42-5.985,4.6l-10.546,39.377a7.438,7.438,0,0,0-.248,1.932c0,2.472,1.55,3.726,4.61,3.726h23.674a4.316,4.316,0,1,0,0-8.632H421.817l3.241-12.091h15.868a4.168,4.168,0,1,0,0-8.337H427.269l3.249-11.945H450a4.316,4.316,0,1,0,0-8.631Z" fill="url(#linear-gradient-40)"/>
          </g>
        </g>
        <g id="Grupo_400" data-name="Grupo 400">
          <g id="Grupo_397" data-name="Grupo 397">
            <path id="Trazado_418" data-name="Trazado 418" d="M314.418,329.921c-2.678,0-5.288-1.471-7.348-4.143l-10.548-13.72c-5.152-6.691-7.658-13.306-7.658-20.227a27.09,27.09,0,0,1,.626-6.132,31.325,31.325,0,0,1,31.122-24.434c12.924,0,26.29,9.308,26.29,24.888a28.909,28.909,0,0,1-.693,6.111c-2.513,11.6-12.618,23.35-27.071,23.35-.643,0-1.248-.016-1.821-.051l2.09,2.725a8.065,8.065,0,0,1,1.757,4.887A6.836,6.836,0,0,1,314.418,329.921Zm6.194-65.931A28.62,28.62,0,0,0,292.15,286.3a24.5,24.5,0,0,0-.56,5.536c0,6.3,2.321,12.368,7.092,18.564l10.547,13.72c1.532,1.986,3.375,3.081,5.189,3.081a4.076,4.076,0,0,0,4.021-4.021,5.425,5.425,0,0,0-1.209-3.247l-6.542-8.526,3.856,1.015a18.515,18.515,0,0,0,4.594.472c13.01,0,22.125-10.665,24.4-21.2a26.133,26.133,0,0,0,.634-5.536C344.177,272.28,332.2,263.99,320.612,263.99Zm-5.236,41.89c-9.6,0-13.9-6.907-13.9-13.752a16.909,16.909,0,0,1,.564-4.495c1.908-7.013,8.349-14.568,17.982-14.568,9.7,0,14.047,6.833,14.047,13.6a18.541,18.541,0,0,1-.634,4.626C331.482,298.558,325.142,305.88,315.376,305.88Zm4.647-30.09c-8.2,0-13.707,6.513-15.354,12.565a14.162,14.162,0,0,0-.467,3.773c0,5.33,2.935,11.026,11.174,11.026,8.324,0,13.745-6.308,15.425-12.56a15.7,15.7,0,0,0,.543-3.925C331.344,281.41,328.37,275.79,320.023,275.79Z" fill="url(#linear-gradient-38)"/>
          </g>
          <g id="Grupo_398" data-name="Grupo 398">
            <path id="Trazado_419" data-name="Trazado 419" d="M375.5,317.827c-13.624,0-22.086-7.417-22.086-19.358a31.053,31.053,0,0,1,1.231-8.407l6.266-23.218a7.554,7.554,0,0,1,7.14-5.506,7.417,7.417,0,0,1,7.41,7.41,6.947,6.947,0,0,1-.275,1.927l-5.818,21.8a17.805,17.805,0,0,0-.618,4.369c0,4.477,2.421,6.748,7.192,6.748,4.837,0,8.429-3.466,10.115-9.758l7.3-27a7.4,7.4,0,0,1,14.552,1.906,7.055,7.055,0,0,1-.273,1.923L401,295.5C397.174,309.9,388.116,317.827,375.5,317.827Zm-7.449-53.764a4.763,4.763,0,0,0-4.505,3.474l-6.274,23.249a28.422,28.422,0,0,0-1.132,7.683c0,10.415,7.237,16.632,19.36,16.632,11.268,0,19.392-7.209,22.873-20.3l6.638-24.857a4.332,4.332,0,0,0,.176-1.2,4.674,4.674,0,0,0-9.2-1.184l-7.3,26.984c-2,7.481-6.649,11.773-12.746,11.773-6.3,0-9.917-3.453-9.917-9.473a20.557,20.557,0,0,1,.708-5.065l5.827-21.838a4.285,4.285,0,0,0,.176-1.2A4.689,4.689,0,0,0,368.048,264.063Z" fill="url(#linear-gradient-39)"/>
          </g>
          <g id="Grupo_399" data-name="Grupo 399">
            <path id="Trazado_420" data-name="Trazado 420" d="M439.008,317.016H415.334c-4.594,0-7.336-2.412-7.336-6.452a10.253,10.253,0,0,1,.343-2.646l10.545-39.376c1.205-4.39,4.1-6.614,8.617-6.614H450a7.041,7.041,0,0,1,0,14.082H432.6l-1.766,6.495h10.091a6.893,6.893,0,1,1,0,13.787H427.148l-1.778,6.64h13.638a7.042,7.042,0,0,1,0,14.084ZM427.5,264.654c-3.267,0-5.114,1.42-5.985,4.6l-10.546,39.377a7.438,7.438,0,0,0-.248,1.932c0,2.472,1.55,3.726,4.61,3.726h23.674a4.316,4.316,0,1,0,0-8.632H421.817l3.241-12.091h15.868a4.168,4.168,0,1,0,0-8.337H427.269l3.249-11.945H450a4.316,4.316,0,1,0,0-8.631Z" fill="url(#linear-gradient-40)"/>
          </g>
        </g>
      </g>
      <g id="Grupo_423" data-name="Grupo 423">
        <g id="Grupo_408" data-name="Grupo 408">
          <g id="Grupo_402" data-name="Grupo 402">
            <path id="Trazado_421" data-name="Trazado 421" d="M138.937,207.533l-22.623-56.4a11.975,11.975,0,0,1-.905-4.374c0-6.334,5.732-10.407,11.312-10.407a9.821,9.821,0,0,1,9.652,6.939c10.858,31.219,14.779,42.831,17.042,51.88,1.809-9.5,4.826-19.305,15.836-51.277,1.959-5.731,6.031-7.39,9.8-7.39,5.58,0,11.311,4.072,11.311,10.1a9.516,9.516,0,0,1-.754,3.922l-21.868,56.706a15.483,15.483,0,0,1-28.806.3Z" fill="url(#linear-gradient-47)"/>
            <path id="Trazado_422" data-name="Trazado 422" d="M200.472,117.345a12.065,12.065,0,1,1,12.065,12.065A12.1,12.1,0,0,1,200.472,117.345Zm1.357,29.56A10.449,10.449,0,0,1,212.537,136.2c5.429,0,10.707,3.772,10.707,10.709v59.572c0,6.937-5.278,10.709-10.707,10.709a10.441,10.441,0,0,1-10.708-10.709Z" fill="url(#linear-gradient-48)"/>
            <path id="Trazado_423" data-name="Trazado 423" d="M322.636,147.207v59.27c0,6.937-5.279,10.709-10.709,10.709s-10.859-3.772-10.859-10.709v-3.921c-3.921,9.35-14.327,15.081-27.449,15.081-23.828,0-38-18.7-38-41.173,0-23.376,14.93-40.871,39.212-40.871,9.8,0,20.209,4.375,26.241,13.122v-1.508c0-7.239,5.43-10.708,10.859-10.708C317.2,136.5,322.636,139.968,322.636,147.207Zm-21.718,29.408c0-12.367-9.049-21.566-21.717-21.566-12.819,0-22.02,9.049-22.02,21.566,0,12.82,9.2,21.869,22.02,21.869C291.869,198.484,300.918,189.134,300.918,176.615Z" fill="url(#linear-gradient-49)"/>
            <path id="Trazado_424" data-name="Trazado 424" d="M339.078,146.9A10.449,10.449,0,0,1,349.787,136.2c5.429,0,10.707,3.772,10.707,10.709v94.863c0,6.938-5.278,10.708-10.707,10.708a10.448,10.448,0,0,1-10.709-10.708Z" fill="url(#linear-gradient-50)"/>
            <path id="Trazado_425" data-name="Trazado 425" d="M372.864,176.615c0-23.677,17.8-41.022,42.53-41.022s42.681,17.345,42.681,41.022c0,23.83-17.947,41.022-42.681,41.022S372.864,200.445,372.864,176.615Zm64.4,0c0-12.517-9.2-21.717-21.869-21.717-12.518,0-21.717,9.2-21.717,21.717s9.2,21.718,21.717,21.718C428.062,198.333,437.263,189.134,437.263,176.615Z" fill="url(#linear-gradient-51)"/>
          </g>
          <g id="Grupo_407" data-name="Grupo 407">
            <g id="Grupo_406" data-name="Grupo 406">
              <g id="Grupo_403" data-name="Grupo 403">
                <path id="Trazado_426" data-name="Trazado 426" d="M138.56,430.953l-22.649-56.472A11.964,11.964,0,0,1,115,370.1c0-6.342,5.738-10.42,11.325-10.42a9.832,9.832,0,0,1,9.663,6.946c10.871,31.257,14.8,42.882,17.063,51.943,1.811-9.512,4.832-19.327,15.854-51.337,1.962-5.74,6.039-7.4,9.815-7.4,5.586,0,11.324,4.078,11.324,10.117a9.538,9.538,0,0,1-.755,3.928L167.4,430.65a15.5,15.5,0,0,1-28.84.3Z" fill="url(#linear-gradient-52)"/>
                <path id="Trazado_427" data-name="Trazado 427" d="M200.168,340.658a12.079,12.079,0,1,1,12.08,12.081A12.114,12.114,0,0,1,200.168,340.658Zm1.359,29.6a10.461,10.461,0,0,1,10.721-10.722c5.435,0,10.719,3.775,10.719,10.722V429.9c0,6.943-5.284,10.719-10.719,10.719A10.452,10.452,0,0,1,201.527,429.9Z" fill="url(#linear-gradient-53)"/>
                <path id="Trazado_428" data-name="Trazado 428" d="M322.476,370.557V429.9c0,6.943-5.286,10.719-10.721,10.719s-10.872-3.776-10.872-10.719V425.97c-3.926,9.361-14.344,15.1-27.481,15.1-23.857,0-38.05-18.725-38.05-41.223,0-23.4,14.948-40.918,39.258-40.918,9.815,0,20.234,4.378,26.273,13.137v-1.509c0-7.25,5.437-10.723,10.872-10.723C317.039,359.834,322.476,363.307,322.476,370.557ZM300.733,400c0-12.38-9.06-21.59-21.743-21.59-12.835,0-22.046,9.058-22.046,21.59,0,12.835,9.211,21.9,22.046,21.9C291.673,421.894,300.733,412.533,300.733,400Z" fill="url(#linear-gradient-54)"/>
                <path id="Trazado_429" data-name="Trazado 429" d="M338.938,370.254a10.461,10.461,0,0,1,10.721-10.722c5.435,0,10.72,3.775,10.72,10.722v94.975c0,6.947-5.285,10.72-10.72,10.72a10.459,10.459,0,0,1-10.721-10.72Z" fill="url(#linear-gradient-55)"/>
                <path id="Trazado_430" data-name="Trazado 430" d="M372.764,400c0-23.7,17.817-41.069,42.58-41.069S458.075,376.293,458.075,400c0,23.86-17.969,41.072-42.731,41.072S372.764,423.858,372.764,400Zm64.474,0c0-12.532-9.211-21.741-21.894-21.741-12.534,0-21.743,9.209-21.743,21.741s9.209,21.745,21.743,21.745C428.027,421.743,437.238,412.533,437.238,400Z" fill="url(#linear-gradient-56)"/>
              </g>
              <g id="Grupo_404" data-name="Grupo 404">
                <path id="Trazado_431" data-name="Trazado 431" d="M138.56,430.953l-22.649-56.472A11.964,11.964,0,0,1,115,370.1c0-6.342,5.738-10.42,11.325-10.42a9.832,9.832,0,0,1,9.663,6.946c10.871,31.257,14.8,42.882,17.063,51.943,1.811-9.512,4.832-19.327,15.854-51.337,1.962-5.74,6.039-7.4,9.815-7.4,5.586,0,11.324,4.078,11.324,10.117a9.538,9.538,0,0,1-.755,3.928L167.4,430.65a15.5,15.5,0,0,1-28.84.3Z" fill="url(#linear-gradient-52)"/>
                <path id="Trazado_432" data-name="Trazado 432" d="M200.168,340.658a12.079,12.079,0,1,1,12.08,12.081A12.114,12.114,0,0,1,200.168,340.658Zm1.359,29.6a10.461,10.461,0,0,1,10.721-10.722c5.435,0,10.719,3.775,10.719,10.722V429.9c0,6.943-5.284,10.719-10.719,10.719A10.452,10.452,0,0,1,201.527,429.9Z" fill="url(#linear-gradient-53)"/>
                <path id="Trazado_433" data-name="Trazado 433" d="M322.476,370.557V429.9c0,6.943-5.286,10.719-10.721,10.719s-10.872-3.776-10.872-10.719V425.97c-3.926,9.361-14.344,15.1-27.481,15.1-23.857,0-38.05-18.725-38.05-41.223,0-23.4,14.948-40.918,39.258-40.918,9.815,0,20.234,4.378,26.273,13.137v-1.509c0-7.25,5.437-10.723,10.872-10.723C317.039,359.834,322.476,363.307,322.476,370.557ZM300.733,400c0-12.38-9.06-21.59-21.743-21.59-12.835,0-22.046,9.058-22.046,21.59,0,12.835,9.211,21.9,22.046,21.9C291.673,421.894,300.733,412.533,300.733,400Z" fill="url(#linear-gradient-54)"/>
                <path id="Trazado_434" data-name="Trazado 434" d="M338.938,370.254a10.461,10.461,0,0,1,10.721-10.722c5.435,0,10.72,3.775,10.72,10.722v94.975c0,6.947-5.285,10.72-10.72,10.72a10.459,10.459,0,0,1-10.721-10.72Z" fill="url(#linear-gradient-55)"/>
                <path id="Trazado_435" data-name="Trazado 435" d="M372.764,400c0-23.7,17.817-41.069,42.58-41.069S458.075,376.293,458.075,400c0,23.86-17.969,41.072-42.731,41.072S372.764,423.858,372.764,400Zm64.474,0c0-12.532-9.211-21.741-21.894-21.741-12.534,0-21.743,9.209-21.743,21.741s9.209,21.745,21.743,21.745C428.027,421.743,437.238,412.533,437.238,400Z" fill="url(#linear-gradient-56)"/>
              </g>
              <g id="Grupo_405" data-name="Grupo 405">
                <path id="Trazado_436" data-name="Trazado 436" d="M138.56,430.953l-22.649-56.472A11.964,11.964,0,0,1,115,370.1c0-6.342,5.738-10.42,11.325-10.42a9.832,9.832,0,0,1,9.663,6.946c10.871,31.257,14.8,42.882,17.063,51.943,1.811-9.512,4.832-19.327,15.854-51.337,1.962-5.74,6.039-7.4,9.815-7.4,5.586,0,11.324,4.078,11.324,10.117a9.538,9.538,0,0,1-.755,3.928L167.4,430.65a15.5,15.5,0,0,1-28.84.3Z" fill="url(#linear-gradient-52)"/>
                <path id="Trazado_437" data-name="Trazado 437" d="M200.168,340.658a12.079,12.079,0,1,1,12.08,12.081A12.114,12.114,0,0,1,200.168,340.658Zm1.359,29.6a10.461,10.461,0,0,1,10.721-10.722c5.435,0,10.719,3.775,10.719,10.722V429.9c0,6.943-5.284,10.719-10.719,10.719A10.452,10.452,0,0,1,201.527,429.9Z" fill="url(#linear-gradient-53)"/>
                <path id="Trazado_438" data-name="Trazado 438" d="M322.476,370.557V429.9c0,6.943-5.286,10.719-10.721,10.719s-10.872-3.776-10.872-10.719V425.97c-3.926,9.361-14.344,15.1-27.481,15.1-23.857,0-38.05-18.725-38.05-41.223,0-23.4,14.948-40.918,39.258-40.918,9.815,0,20.234,4.378,26.273,13.137v-1.509c0-7.25,5.437-10.723,10.872-10.723C317.039,359.834,322.476,363.307,322.476,370.557ZM300.733,400c0-12.38-9.06-21.59-21.743-21.59-12.835,0-22.046,9.058-22.046,21.59,0,12.835,9.211,21.9,22.046,21.9C291.673,421.894,300.733,412.533,300.733,400Z" fill="url(#linear-gradient-54)"/>
                <path id="Trazado_439" data-name="Trazado 439" d="M338.938,370.254a10.461,10.461,0,0,1,10.721-10.722c5.435,0,10.72,3.775,10.72,10.722v94.975c0,6.947-5.285,10.72-10.72,10.72a10.459,10.459,0,0,1-10.721-10.72Z" fill="url(#linear-gradient-55)"/>
                <path id="Trazado_440" data-name="Trazado 440" d="M372.764,400c0-23.7,17.817-41.069,42.58-41.069S458.075,376.293,458.075,400c0,23.86-17.969,41.072-42.731,41.072S372.764,423.858,372.764,400Zm64.474,0c0-12.532-9.211-21.741-21.894-21.741-12.534,0-21.743,9.209-21.743,21.741s9.209,21.745,21.743,21.745C428.027,421.743,437.238,412.533,437.238,400Z" fill="url(#linear-gradient-56)"/>
              </g>
            </g>
          </g>
          <path id="Trazado_441" data-name="Trazado 441" d="M350.613,82.111c-12,0-20.631,8.42-20.631,19.9a20.6,20.6,0,0,0,1.427,7.723h-.139l.313.417a18.339,18.339,0,0,0,5.01,6.854,19.58,19.58,0,0,0,7.09,3.858l4.79,6.55a2.524,2.524,0,0,0,4.074,0l4.728-6.454a20.192,20.192,0,0,0,6.768-3.4,19.278,19.278,0,0,0,7.306-15.551C371.349,90.531,362.616,82.111,350.613,82.111Zm7.48,27.624a10.613,10.613,0,0,1-7.48,2.853,10.5,10.5,0,0,1-7.41-2.853,10.646,10.646,0,0,1-3.131-7.723,10.594,10.594,0,0,1,21.187,0A10.534,10.534,0,0,1,358.093,109.735Z" fill="url(#linear-gradient-67)"/>
          <path id="Trazado_442" data-name="Trazado 442" d="M338.21,340.658a12.079,12.079,0,1,1,12.08,12.081A12.114,12.114,0,0,1,338.21,340.658Z" fill="url(#linear-gradient-68)"/>
        </g>
        <g id="Grupo_415" data-name="Grupo 415">
          <g id="Grupo_409" data-name="Grupo 409">
            <path id="Trazado_443" data-name="Trazado 443" d="M138.937,207.533l-22.623-56.4a11.975,11.975,0,0,1-.905-4.374c0-6.334,5.732-10.407,11.312-10.407a9.821,9.821,0,0,1,9.652,6.939c10.858,31.219,14.779,42.831,17.042,51.88,1.809-9.5,4.826-19.305,15.836-51.277,1.959-5.731,6.031-7.39,9.8-7.39,5.58,0,11.311,4.072,11.311,10.1a9.516,9.516,0,0,1-.754,3.922l-21.868,56.706a15.483,15.483,0,0,1-28.806.3Z" fill="url(#linear-gradient-47)"/>
            <path id="Trazado_444" data-name="Trazado 444" d="M200.472,117.345a12.065,12.065,0,1,1,12.065,12.065A12.1,12.1,0,0,1,200.472,117.345Zm1.357,29.56A10.449,10.449,0,0,1,212.537,136.2c5.429,0,10.707,3.772,10.707,10.709v59.572c0,6.937-5.278,10.709-10.707,10.709a10.441,10.441,0,0,1-10.708-10.709Z" fill="url(#linear-gradient-48)"/>
            <path id="Trazado_445" data-name="Trazado 445" d="M322.636,147.207v59.27c0,6.937-5.279,10.709-10.709,10.709s-10.859-3.772-10.859-10.709v-3.921c-3.921,9.35-14.327,15.081-27.449,15.081-23.828,0-38-18.7-38-41.173,0-23.376,14.93-40.871,39.212-40.871,9.8,0,20.209,4.375,26.241,13.122v-1.508c0-7.239,5.43-10.708,10.859-10.708C317.2,136.5,322.636,139.968,322.636,147.207Zm-21.718,29.408c0-12.367-9.049-21.566-21.717-21.566-12.819,0-22.02,9.049-22.02,21.566,0,12.82,9.2,21.869,22.02,21.869C291.869,198.484,300.918,189.134,300.918,176.615Z" fill="url(#linear-gradient-49)"/>
            <path id="Trazado_446" data-name="Trazado 446" d="M339.078,146.9A10.449,10.449,0,0,1,349.787,136.2c5.429,0,10.707,3.772,10.707,10.709v94.863c0,6.938-5.278,10.708-10.707,10.708a10.448,10.448,0,0,1-10.709-10.708Z" fill="url(#linear-gradient-50)"/>
            <path id="Trazado_447" data-name="Trazado 447" d="M372.864,176.615c0-23.677,17.8-41.022,42.53-41.022s42.681,17.345,42.681,41.022c0,23.83-17.947,41.022-42.681,41.022S372.864,200.445,372.864,176.615Zm64.4,0c0-12.517-9.2-21.717-21.869-21.717-12.518,0-21.717,9.2-21.717,21.717s9.2,21.718,21.717,21.718C428.062,198.333,437.263,189.134,437.263,176.615Z" fill="url(#linear-gradient-51)"/>
          </g>
          <g id="Grupo_414" data-name="Grupo 414">
            <g id="Grupo_413" data-name="Grupo 413">
              <g id="Grupo_410" data-name="Grupo 410">
                <path id="Trazado_448" data-name="Trazado 448" d="M138.56,430.953l-22.649-56.472A11.964,11.964,0,0,1,115,370.1c0-6.342,5.738-10.42,11.325-10.42a9.832,9.832,0,0,1,9.663,6.946c10.871,31.257,14.8,42.882,17.063,51.943,1.811-9.512,4.832-19.327,15.854-51.337,1.962-5.74,6.039-7.4,9.815-7.4,5.586,0,11.324,4.078,11.324,10.117a9.538,9.538,0,0,1-.755,3.928L167.4,430.65a15.5,15.5,0,0,1-28.84.3Z" fill="url(#linear-gradient-52)"/>
                <path id="Trazado_449" data-name="Trazado 449" d="M200.168,340.658a12.079,12.079,0,1,1,12.08,12.081A12.114,12.114,0,0,1,200.168,340.658Zm1.359,29.6a10.461,10.461,0,0,1,10.721-10.722c5.435,0,10.719,3.775,10.719,10.722V429.9c0,6.943-5.284,10.719-10.719,10.719A10.452,10.452,0,0,1,201.527,429.9Z" fill="url(#linear-gradient-53)"/>
                <path id="Trazado_450" data-name="Trazado 450" d="M322.476,370.557V429.9c0,6.943-5.286,10.719-10.721,10.719s-10.872-3.776-10.872-10.719V425.97c-3.926,9.361-14.344,15.1-27.481,15.1-23.857,0-38.05-18.725-38.05-41.223,0-23.4,14.948-40.918,39.258-40.918,9.815,0,20.234,4.378,26.273,13.137v-1.509c0-7.25,5.437-10.723,10.872-10.723C317.039,359.834,322.476,363.307,322.476,370.557ZM300.733,400c0-12.38-9.06-21.59-21.743-21.59-12.835,0-22.046,9.058-22.046,21.59,0,12.835,9.211,21.9,22.046,21.9C291.673,421.894,300.733,412.533,300.733,400Z" fill="url(#linear-gradient-54)"/>
                <path id="Trazado_451" data-name="Trazado 451" d="M338.938,370.254a10.461,10.461,0,0,1,10.721-10.722c5.435,0,10.72,3.775,10.72,10.722v94.975c0,6.947-5.285,10.72-10.72,10.72a10.459,10.459,0,0,1-10.721-10.72Z" fill="url(#linear-gradient-55)"/>
                <path id="Trazado_452" data-name="Trazado 452" d="M372.764,400c0-23.7,17.817-41.069,42.58-41.069S458.075,376.293,458.075,400c0,23.86-17.969,41.072-42.731,41.072S372.764,423.858,372.764,400Zm64.474,0c0-12.532-9.211-21.741-21.894-21.741-12.534,0-21.743,9.209-21.743,21.741s9.209,21.745,21.743,21.745C428.027,421.743,437.238,412.533,437.238,400Z" fill="url(#linear-gradient-56)"/>
              </g>
              <g id="Grupo_411" data-name="Grupo 411">
                <path id="Trazado_453" data-name="Trazado 453" d="M138.56,430.953l-22.649-56.472A11.964,11.964,0,0,1,115,370.1c0-6.342,5.738-10.42,11.325-10.42a9.832,9.832,0,0,1,9.663,6.946c10.871,31.257,14.8,42.882,17.063,51.943,1.811-9.512,4.832-19.327,15.854-51.337,1.962-5.74,6.039-7.4,9.815-7.4,5.586,0,11.324,4.078,11.324,10.117a9.538,9.538,0,0,1-.755,3.928L167.4,430.65a15.5,15.5,0,0,1-28.84.3Z" fill="url(#linear-gradient-52)"/>
                <path id="Trazado_454" data-name="Trazado 454" d="M200.168,340.658a12.079,12.079,0,1,1,12.08,12.081A12.114,12.114,0,0,1,200.168,340.658Zm1.359,29.6a10.461,10.461,0,0,1,10.721-10.722c5.435,0,10.719,3.775,10.719,10.722V429.9c0,6.943-5.284,10.719-10.719,10.719A10.452,10.452,0,0,1,201.527,429.9Z" fill="url(#linear-gradient-53)"/>
                <path id="Trazado_455" data-name="Trazado 455" d="M322.476,370.557V429.9c0,6.943-5.286,10.719-10.721,10.719s-10.872-3.776-10.872-10.719V425.97c-3.926,9.361-14.344,15.1-27.481,15.1-23.857,0-38.05-18.725-38.05-41.223,0-23.4,14.948-40.918,39.258-40.918,9.815,0,20.234,4.378,26.273,13.137v-1.509c0-7.25,5.437-10.723,10.872-10.723C317.039,359.834,322.476,363.307,322.476,370.557ZM300.733,400c0-12.38-9.06-21.59-21.743-21.59-12.835,0-22.046,9.058-22.046,21.59,0,12.835,9.211,21.9,22.046,21.9C291.673,421.894,300.733,412.533,300.733,400Z" fill="url(#linear-gradient-54)"/>
                <path id="Trazado_456" data-name="Trazado 456" d="M338.938,370.254a10.461,10.461,0,0,1,10.721-10.722c5.435,0,10.72,3.775,10.72,10.722v94.975c0,6.947-5.285,10.72-10.72,10.72a10.459,10.459,0,0,1-10.721-10.72Z" fill="url(#linear-gradient-55)"/>
                <path id="Trazado_457" data-name="Trazado 457" d="M372.764,400c0-23.7,17.817-41.069,42.58-41.069S458.075,376.293,458.075,400c0,23.86-17.969,41.072-42.731,41.072S372.764,423.858,372.764,400Zm64.474,0c0-12.532-9.211-21.741-21.894-21.741-12.534,0-21.743,9.209-21.743,21.741s9.209,21.745,21.743,21.745C428.027,421.743,437.238,412.533,437.238,400Z" fill="url(#linear-gradient-56)"/>
              </g>
              <g id="Grupo_412" data-name="Grupo 412">
                <path id="Trazado_458" data-name="Trazado 458" d="M138.56,430.953l-22.649-56.472A11.964,11.964,0,0,1,115,370.1c0-6.342,5.738-10.42,11.325-10.42a9.832,9.832,0,0,1,9.663,6.946c10.871,31.257,14.8,42.882,17.063,51.943,1.811-9.512,4.832-19.327,15.854-51.337,1.962-5.74,6.039-7.4,9.815-7.4,5.586,0,11.324,4.078,11.324,10.117a9.538,9.538,0,0,1-.755,3.928L167.4,430.65a15.5,15.5,0,0,1-28.84.3Z" fill="url(#linear-gradient-52)"/>
                <path id="Trazado_459" data-name="Trazado 459" d="M200.168,340.658a12.079,12.079,0,1,1,12.08,12.081A12.114,12.114,0,0,1,200.168,340.658Zm1.359,29.6a10.461,10.461,0,0,1,10.721-10.722c5.435,0,10.719,3.775,10.719,10.722V429.9c0,6.943-5.284,10.719-10.719,10.719A10.452,10.452,0,0,1,201.527,429.9Z" fill="url(#linear-gradient-53)"/>
                <path id="Trazado_460" data-name="Trazado 460" d="M322.476,370.557V429.9c0,6.943-5.286,10.719-10.721,10.719s-10.872-3.776-10.872-10.719V425.97c-3.926,9.361-14.344,15.1-27.481,15.1-23.857,0-38.05-18.725-38.05-41.223,0-23.4,14.948-40.918,39.258-40.918,9.815,0,20.234,4.378,26.273,13.137v-1.509c0-7.25,5.437-10.723,10.872-10.723C317.039,359.834,322.476,363.307,322.476,370.557ZM300.733,400c0-12.38-9.06-21.59-21.743-21.59-12.835,0-22.046,9.058-22.046,21.59,0,12.835,9.211,21.9,22.046,21.9C291.673,421.894,300.733,412.533,300.733,400Z" fill="url(#linear-gradient-54)"/>
                <path id="Trazado_461" data-name="Trazado 461" d="M338.938,370.254a10.461,10.461,0,0,1,10.721-10.722c5.435,0,10.72,3.775,10.72,10.722v94.975c0,6.947-5.285,10.72-10.72,10.72a10.459,10.459,0,0,1-10.721-10.72Z" fill="url(#linear-gradient-55)"/>
                <path id="Trazado_462" data-name="Trazado 462" d="M372.764,400c0-23.7,17.817-41.069,42.58-41.069S458.075,376.293,458.075,400c0,23.86-17.969,41.072-42.731,41.072S372.764,423.858,372.764,400Zm64.474,0c0-12.532-9.211-21.741-21.894-21.741-12.534,0-21.743,9.209-21.743,21.741s9.209,21.745,21.743,21.745C428.027,421.743,437.238,412.533,437.238,400Z" fill="url(#linear-gradient-56)"/>
              </g>
            </g>
          </g>
          <path id="Trazado_463" data-name="Trazado 463" d="M350.613,82.111c-12,0-20.631,8.42-20.631,19.9a20.6,20.6,0,0,0,1.427,7.723h-.139l.313.417a18.339,18.339,0,0,0,5.01,6.854,19.58,19.58,0,0,0,7.09,3.858l4.79,6.55a2.524,2.524,0,0,0,4.074,0l4.728-6.454a20.192,20.192,0,0,0,6.768-3.4,19.278,19.278,0,0,0,7.306-15.551C371.349,90.531,362.616,82.111,350.613,82.111Zm7.48,27.624a10.613,10.613,0,0,1-7.48,2.853,10.5,10.5,0,0,1-7.41-2.853,10.646,10.646,0,0,1-3.131-7.723,10.594,10.594,0,0,1,21.187,0A10.534,10.534,0,0,1,358.093,109.735Z" fill="url(#linear-gradient-67)"/>
          <path id="Trazado_464" data-name="Trazado 464" d="M338.21,340.658a12.079,12.079,0,1,1,12.08,12.081A12.114,12.114,0,0,1,338.21,340.658Z" fill="url(#linear-gradient-68)"/>
        </g>
        <g id="Grupo_422" data-name="Grupo 422">
          <g id="Grupo_416" data-name="Grupo 416">
            <path id="Trazado_465" data-name="Trazado 465" d="M138.937,207.533l-22.623-56.4a11.975,11.975,0,0,1-.905-4.374c0-6.334,5.732-10.407,11.312-10.407a9.821,9.821,0,0,1,9.652,6.939c10.858,31.219,14.779,42.831,17.042,51.88,1.809-9.5,4.826-19.305,15.836-51.277,1.959-5.731,6.031-7.39,9.8-7.39,5.58,0,11.311,4.072,11.311,10.1a9.516,9.516,0,0,1-.754,3.922l-21.868,56.706a15.483,15.483,0,0,1-28.806.3Z" fill="url(#linear-gradient-47)"/>
            <path id="Trazado_466" data-name="Trazado 466" d="M200.472,117.345a12.065,12.065,0,1,1,12.065,12.065A12.1,12.1,0,0,1,200.472,117.345Zm1.357,29.56A10.449,10.449,0,0,1,212.537,136.2c5.429,0,10.707,3.772,10.707,10.709v59.572c0,6.937-5.278,10.709-10.707,10.709a10.441,10.441,0,0,1-10.708-10.709Z" fill="url(#linear-gradient-48)"/>
            <path id="Trazado_467" data-name="Trazado 467" d="M322.636,147.207v59.27c0,6.937-5.279,10.709-10.709,10.709s-10.859-3.772-10.859-10.709v-3.921c-3.921,9.35-14.327,15.081-27.449,15.081-23.828,0-38-18.7-38-41.173,0-23.376,14.93-40.871,39.212-40.871,9.8,0,20.209,4.375,26.241,13.122v-1.508c0-7.239,5.43-10.708,10.859-10.708C317.2,136.5,322.636,139.968,322.636,147.207Zm-21.718,29.408c0-12.367-9.049-21.566-21.717-21.566-12.819,0-22.02,9.049-22.02,21.566,0,12.82,9.2,21.869,22.02,21.869C291.869,198.484,300.918,189.134,300.918,176.615Z" fill="url(#linear-gradient-49)"/>
            <path id="Trazado_468" data-name="Trazado 468" d="M339.078,146.9A10.449,10.449,0,0,1,349.787,136.2c5.429,0,10.707,3.772,10.707,10.709v94.863c0,6.938-5.278,10.708-10.707,10.708a10.448,10.448,0,0,1-10.709-10.708Z" fill="url(#linear-gradient-50)"/>
            <path id="Trazado_469" data-name="Trazado 469" d="M372.864,176.615c0-23.677,17.8-41.022,42.53-41.022s42.681,17.345,42.681,41.022c0,23.83-17.947,41.022-42.681,41.022S372.864,200.445,372.864,176.615Zm64.4,0c0-12.517-9.2-21.717-21.869-21.717-12.518,0-21.717,9.2-21.717,21.717s9.2,21.718,21.717,21.718C428.062,198.333,437.263,189.134,437.263,176.615Z" fill="url(#linear-gradient-51)"/>
          </g>
          <g id="Grupo_421" data-name="Grupo 421">
            <g id="Grupo_420" data-name="Grupo 420">
              <g id="Grupo_417" data-name="Grupo 417">
                <path id="Trazado_470" data-name="Trazado 470" d="M138.56,430.953l-22.649-56.472A11.964,11.964,0,0,1,115,370.1c0-6.342,5.738-10.42,11.325-10.42a9.832,9.832,0,0,1,9.663,6.946c10.871,31.257,14.8,42.882,17.063,51.943,1.811-9.512,4.832-19.327,15.854-51.337,1.962-5.74,6.039-7.4,9.815-7.4,5.586,0,11.324,4.078,11.324,10.117a9.538,9.538,0,0,1-.755,3.928L167.4,430.65a15.5,15.5,0,0,1-28.84.3Z" fill="url(#linear-gradient-52)"/>
                <path id="Trazado_471" data-name="Trazado 471" d="M200.168,340.658a12.079,12.079,0,1,1,12.08,12.081A12.114,12.114,0,0,1,200.168,340.658Zm1.359,29.6a10.461,10.461,0,0,1,10.721-10.722c5.435,0,10.719,3.775,10.719,10.722V429.9c0,6.943-5.284,10.719-10.719,10.719A10.452,10.452,0,0,1,201.527,429.9Z" fill="url(#linear-gradient-53)"/>
                <path id="Trazado_472" data-name="Trazado 472" d="M322.476,370.557V429.9c0,6.943-5.286,10.719-10.721,10.719s-10.872-3.776-10.872-10.719V425.97c-3.926,9.361-14.344,15.1-27.481,15.1-23.857,0-38.05-18.725-38.05-41.223,0-23.4,14.948-40.918,39.258-40.918,9.815,0,20.234,4.378,26.273,13.137v-1.509c0-7.25,5.437-10.723,10.872-10.723C317.039,359.834,322.476,363.307,322.476,370.557ZM300.733,400c0-12.38-9.06-21.59-21.743-21.59-12.835,0-22.046,9.058-22.046,21.59,0,12.835,9.211,21.9,22.046,21.9C291.673,421.894,300.733,412.533,300.733,400Z" fill="url(#linear-gradient-54)"/>
                <path id="Trazado_473" data-name="Trazado 473" d="M338.938,370.254a10.461,10.461,0,0,1,10.721-10.722c5.435,0,10.72,3.775,10.72,10.722v94.975c0,6.947-5.285,10.72-10.72,10.72a10.459,10.459,0,0,1-10.721-10.72Z" fill="url(#linear-gradient-55)"/>
                <path id="Trazado_474" data-name="Trazado 474" d="M372.764,400c0-23.7,17.817-41.069,42.58-41.069S458.075,376.293,458.075,400c0,23.86-17.969,41.072-42.731,41.072S372.764,423.858,372.764,400Zm64.474,0c0-12.532-9.211-21.741-21.894-21.741-12.534,0-21.743,9.209-21.743,21.741s9.209,21.745,21.743,21.745C428.027,421.743,437.238,412.533,437.238,400Z" fill="url(#linear-gradient-56)"/>
              </g>
              <g id="Grupo_418" data-name="Grupo 418">
                <path id="Trazado_475" data-name="Trazado 475" d="M138.56,430.953l-22.649-56.472A11.964,11.964,0,0,1,115,370.1c0-6.342,5.738-10.42,11.325-10.42a9.832,9.832,0,0,1,9.663,6.946c10.871,31.257,14.8,42.882,17.063,51.943,1.811-9.512,4.832-19.327,15.854-51.337,1.962-5.74,6.039-7.4,9.815-7.4,5.586,0,11.324,4.078,11.324,10.117a9.538,9.538,0,0,1-.755,3.928L167.4,430.65a15.5,15.5,0,0,1-28.84.3Z" fill="url(#linear-gradient-52)"/>
                <path id="Trazado_476" data-name="Trazado 476" d="M200.168,340.658a12.079,12.079,0,1,1,12.08,12.081A12.114,12.114,0,0,1,200.168,340.658Zm1.359,29.6a10.461,10.461,0,0,1,10.721-10.722c5.435,0,10.719,3.775,10.719,10.722V429.9c0,6.943-5.284,10.719-10.719,10.719A10.452,10.452,0,0,1,201.527,429.9Z" fill="url(#linear-gradient-53)"/>
                <path id="Trazado_477" data-name="Trazado 477" d="M322.476,370.557V429.9c0,6.943-5.286,10.719-10.721,10.719s-10.872-3.776-10.872-10.719V425.97c-3.926,9.361-14.344,15.1-27.481,15.1-23.857,0-38.05-18.725-38.05-41.223,0-23.4,14.948-40.918,39.258-40.918,9.815,0,20.234,4.378,26.273,13.137v-1.509c0-7.25,5.437-10.723,10.872-10.723C317.039,359.834,322.476,363.307,322.476,370.557ZM300.733,400c0-12.38-9.06-21.59-21.743-21.59-12.835,0-22.046,9.058-22.046,21.59,0,12.835,9.211,21.9,22.046,21.9C291.673,421.894,300.733,412.533,300.733,400Z" fill="url(#linear-gradient-54)"/>
                <path id="Trazado_478" data-name="Trazado 478" d="M338.938,370.254a10.461,10.461,0,0,1,10.721-10.722c5.435,0,10.72,3.775,10.72,10.722v94.975c0,6.947-5.285,10.72-10.72,10.72a10.459,10.459,0,0,1-10.721-10.72Z" fill="url(#linear-gradient-55)"/>
                <path id="Trazado_479" data-name="Trazado 479" d="M372.764,400c0-23.7,17.817-41.069,42.58-41.069S458.075,376.293,458.075,400c0,23.86-17.969,41.072-42.731,41.072S372.764,423.858,372.764,400Zm64.474,0c0-12.532-9.211-21.741-21.894-21.741-12.534,0-21.743,9.209-21.743,21.741s9.209,21.745,21.743,21.745C428.027,421.743,437.238,412.533,437.238,400Z" fill="url(#linear-gradient-56)"/>
              </g>
              <g id="Grupo_419" data-name="Grupo 419">
                <path id="Trazado_480" data-name="Trazado 480" d="M138.56,430.953l-22.649-56.472A11.964,11.964,0,0,1,115,370.1c0-6.342,5.738-10.42,11.325-10.42a9.832,9.832,0,0,1,9.663,6.946c10.871,31.257,14.8,42.882,17.063,51.943,1.811-9.512,4.832-19.327,15.854-51.337,1.962-5.74,6.039-7.4,9.815-7.4,5.586,0,11.324,4.078,11.324,10.117a9.538,9.538,0,0,1-.755,3.928L167.4,430.65a15.5,15.5,0,0,1-28.84.3Z" fill="url(#linear-gradient-52)"/>
                <path id="Trazado_481" data-name="Trazado 481" d="M200.168,340.658a12.079,12.079,0,1,1,12.08,12.081A12.114,12.114,0,0,1,200.168,340.658Zm1.359,29.6a10.461,10.461,0,0,1,10.721-10.722c5.435,0,10.719,3.775,10.719,10.722V429.9c0,6.943-5.284,10.719-10.719,10.719A10.452,10.452,0,0,1,201.527,429.9Z" fill="url(#linear-gradient-53)"/>
                <path id="Trazado_482" data-name="Trazado 482" d="M322.476,370.557V429.9c0,6.943-5.286,10.719-10.721,10.719s-10.872-3.776-10.872-10.719V425.97c-3.926,9.361-14.344,15.1-27.481,15.1-23.857,0-38.05-18.725-38.05-41.223,0-23.4,14.948-40.918,39.258-40.918,9.815,0,20.234,4.378,26.273,13.137v-1.509c0-7.25,5.437-10.723,10.872-10.723C317.039,359.834,322.476,363.307,322.476,370.557ZM300.733,400c0-12.38-9.06-21.59-21.743-21.59-12.835,0-22.046,9.058-22.046,21.59,0,12.835,9.211,21.9,22.046,21.9C291.673,421.894,300.733,412.533,300.733,400Z" fill="url(#linear-gradient-54)"/>
                <path id="Trazado_483" data-name="Trazado 483" d="M338.938,370.254a10.461,10.461,0,0,1,10.721-10.722c5.435,0,10.72,3.775,10.72,10.722v94.975c0,6.947-5.285,10.72-10.72,10.72a10.459,10.459,0,0,1-10.721-10.72Z" fill="url(#linear-gradient-55)"/>
                <path id="Trazado_484" data-name="Trazado 484" d="M372.764,400c0-23.7,17.817-41.069,42.58-41.069S458.075,376.293,458.075,400c0,23.86-17.969,41.072-42.731,41.072S372.764,423.858,372.764,400Zm64.474,0c0-12.532-9.211-21.741-21.894-21.741-12.534,0-21.743,9.209-21.743,21.741s9.209,21.745,21.743,21.745C428.027,421.743,437.238,412.533,437.238,400Z" fill="url(#linear-gradient-56)"/>
              </g>
            </g>
          </g>
          <path id="Trazado_485" data-name="Trazado 485" d="M350.613,82.111c-12,0-20.631,8.42-20.631,19.9a20.6,20.6,0,0,0,1.427,7.723h-.139l.313.417a18.339,18.339,0,0,0,5.01,6.854,19.58,19.58,0,0,0,7.09,3.858l4.79,6.55a2.524,2.524,0,0,0,4.074,0l4.728-6.454a20.192,20.192,0,0,0,6.768-3.4,19.278,19.278,0,0,0,7.306-15.551C371.349,90.531,362.616,82.111,350.613,82.111Zm7.48,27.624a10.613,10.613,0,0,1-7.48,2.853,10.5,10.5,0,0,1-7.41-2.853,10.646,10.646,0,0,1-3.131-7.723,10.594,10.594,0,0,1,21.187,0A10.534,10.534,0,0,1,358.093,109.735Z" fill="url(#linear-gradient-67)"/>
          <path id="Trazado_486" data-name="Trazado 486" d="M338.21,340.658a12.079,12.079,0,1,1,12.08,12.081A12.114,12.114,0,0,1,338.21,340.658Z" fill="url(#linear-gradient-68)"/>
        </g>
      </g>
    </g>
  </g>
</svg>
