<?xml version="1.0" encoding="UTF-8"?><svg xmlns="http://www.w3.org/2000/svg" xmlns:xlink="http://www.w3.org/1999/xlink" viewBox="0 0 343.07 393.84"><defs><style>.ae{fill:url(#t);}.af{fill:#fff;}.ag{fill:url(#r);}.ah{fill:url(#y);}.ai{fill:url(#l);}.aj{fill:url(#u);}.ak{fill:url(#v);}.al{fill:url(#a`);}.am{fill:url(#m);}.an{filter:url(#b);}.ao{fill:url(#f);}.ap{fill:url(#p);}.aq{fill:url(#g);}.ar{fill:url(#ab);}.as{fill:url(#i);}.at{fill:url(#h);}.au{fill:url(#d);}.av{fill:url(#e);}.aw{fill:none;}.ax{fill:url(#x);}.ay{fill:url(#aa);}.b`{fill:url(#s);}.ba{fill:url(#n);}.bb{fill:url(#ac);}.bc{fill:url(#w);}.bd{fill:url(#j);}.be{fill:url(#o);}.bf{fill:url(#q);}.bg{fill:url(#k);}</style><filter id="b" filterUnits="userSpaceOnUse"><feOffset dx="2" dy="2"/><feGaussianBlur result="c" stdDeviation="5"/><feFlood flood-color="#000" flood-opacity=".3"/><feComposite in2="c" operator="in"/><feComposite in="SourceGraphic"/></filter><linearGradient id="d" x1="-253.46" y1="-111.8" x2="-82.06" y2="-111.8" gradientTransform="translate(253.46 317.89)" gradientUnits="userSpaceOnUse"><stop offset="0" stop-color="#fff"/><stop offset="1" stop-color="#fff"/></linearGradient><linearGradient id="e" x1="-79.6" y1="-104.41" x2="88.57" y2="-104.41" xlink:href="#d"/><linearGradient id="f" x1="-79.6" y1="-104.41" x2="88.57" y2="-104.41" xlink:href="#d"/><linearGradient id="g" x1="-79.6" y1="-104.41" x2="88.57" y2="-104.41" xlink:href="#d"/><linearGradient id="h" y1="-120.97" x2="89.61" y2="-120.97" xlink:href="#d"/><linearGradient id="i" y1="-120.97" x2="89.61" y2="-120.97" xlink:href="#d"/><linearGradient id="j" y1="-120.97" x2="89.61" y2="-120.97" xlink:href="#d"/><linearGradient id="k" y1="-120.97" x2="89.61" y2="-120.97" xlink:href="#d"/><linearGradient id="l" y1="-120.97" x2="89.61" y2="-120.97" xlink:href="#d"/><linearGradient id="m" y1="-120.97" x2="89.61" y2="-120.97" xlink:href="#d"/><linearGradient id="n" y1="-120.97" x2="89.61" y2="-120.97" xlink:href="#d"/><linearGradient id="o" y1="-120.97" x2="89.61" y2="-120.97" xlink:href="#d"/><linearGradient id="p" y1="-120.97" x2="89.61" y2="-120.97" xlink:href="#d"/><linearGradient id="q" y1="-120.97" x2="89.61" y2="-120.97" xlink:href="#d"/><linearGradient id="r" y1="-120.97" x2="89.61" y2="-120.97" xlink:href="#d"/><linearGradient id="s" y1="-120.97" x2="89.61" y2="-120.97" xlink:href="#d"/><linearGradient id="t" y1="-120.97" x2="89.61" y2="-120.97" xlink:href="#d"/><linearGradient id="u" y1="-120.97" x2="89.61" y2="-120.97" xlink:href="#d"/><linearGradient id="v" y1="-120.97" x2="89.61" y2="-120.97" xlink:href="#d"/><linearGradient id="w" y1="-120.97" x2="89.61" y2="-120.97" xlink:href="#d"/><linearGradient id="x" y1="-120.97" x2="89.61" y2="-120.97" xlink:href="#d"/><linearGradient id="y" y1="-120.97" x2="89.61" y2="-120.97" xlink:href="#d"/><linearGradient id="a`" y1="-120.97" x2="89.61" y2="-120.97" xlink:href="#d"/><linearGradient id="aa" y1="-120.97" x2="89.61" y2="-120.97" xlink:href="#d"/><linearGradient id="ab" y1="-120.97" x2="89.61" y2="-120.97" xlink:href="#d"/><linearGradient id="ac" y1="-120.97" x2="89.61" y2="-120.97" xlink:href="#d"/></defs><g id="a"><g class="an"><g><g><path class="aw" d="M7.43,234.22c-4.24,0-7.43-3-7.43-6.99,0-.83,.12-1.61,.36-2.33l10.7-40.07c1.13-4.17,3.86-6.28,8.12-6.28h14.93c11.21,0,19.04,7.07,19.04,17.19,0,1.56-.21,3.28-.62,5.09-2.56,10.79-12.04,16.97-26.03,16.97h-9.06l-2.92,10.94c-.8,3.11-3.85,5.47-7.09,5.47Zm6.13-48.72L2.84,225.65c-.17,.53-.25,1.04-.25,1.59,0,2.89,2.44,4.4,4.84,4.4,2.1,0,4.07-1.52,4.59-3.54l3.44-12.87h11.05c7.46,0,20.42-1.95,23.51-14.97,.37-1.62,.56-3.14,.56-4.51,0-8.73-6.61-14.6-16.45-14.6h-14.93c-3.07,0-4.81,1.35-5.63,4.36h0Zm15.98,20.85h-11.67l4.39-16.34h9.49c5.1,0,8.39,2.83,8.39,7.21,0,.78-.16,1.59-.32,2.35-1.21,4.39-4.86,6.78-10.28,6.78Zm-8.29-2.58h8.29c4.28,0,6.89-1.62,7.78-4.82,.12-.55,.25-1.2,.25-1.73,0-2.89-2.17-4.62-5.81-4.62h-7.51l-3,11.17Z"/><path class="aw" d="M83.15,234.37c-14.82,0-25.17-10.05-25.17-24.43,0-1.29,.08-2.6,.23-3.99,2-16.31,15.29-28.13,31.6-28.13,14.82,0,25.17,10.05,25.17,24.43,0,1.29-.08,2.6-.23,3.99-2,16.31-15.29,28.13-31.6,28.13Zm6.65-53.97c-14.98,0-27.19,10.87-29.03,25.85-.14,1.27-.21,2.48-.21,3.69,0,13.07,9.08,21.85,22.59,21.85,14.98,0,27.19-10.87,29.03-25.85,.14-1.27,.21-2.48,.21-3.69,0-13.07-9.08-21.85-22.59-21.85Zm-5.47,42.14c-8.08,0-13.71-5.76-13.71-14.01,0-.86,0-1.74,.17-2.67,1.32-9.22,8.99-16.22,17.83-16.22,8.08,0,13.71,5.76,13.71,14.01,0,.85,0,1.73-.16,2.65-1.33,9.26-9,16.24-17.84,16.24Zm4.29-30.31c-7.57,0-14.14,6.04-15.28,14.05-.13,.75-.13,1.48-.13,2.26,0,6.83,4.47,11.42,11.13,11.42,7.57,0,14.14-6.04,15.28-14.05v-.05c.13-.7,.13-1.43,.13-2.21,0-6.83-4.47-11.42-11.13-11.42Z"/><path class="aw" d="M126.26,234.22c-4.03,0-7.43-3.44-7.43-7.5,0-.61,.08-1.18,.27-1.83l10.71-40.05c1.13-4.17,3.86-6.28,8.12-6.28h14.42c11.74,0,19.04,6.08,19.04,15.86,0,1.75-.29,3.75-.85,5.94-1.99,7.59-8.06,12.3-17.62,13.7,1.55,2.03,3.54,5.1,6.02,9.27,.75,1.24,1.14,2.57,1.14,3.84,0,3.71-3.44,6.84-7.5,6.84-2.72,0-5.24-1.45-6.72-3.87l-9.18-14.77c-.62,2.86-1.66,7-3.25,13.3-.83,3.22-3.84,5.56-7.17,5.56Zm11.68-53.08c-3.07,0-4.81,1.35-5.63,4.37l-10.72,40.07c-.13,.45-.18,.78-.18,1.15,0,2.38,1.95,4.92,4.84,4.92,2.16,0,4.12-1.52,4.66-3.61,2.33-9.23,3.46-13.78,3.82-16.34l.49-3.54,12.83,20.63c1.46,2.39,3.65,2.65,4.52,2.65,2.37,0,4.92-1.71,4.92-4.25,0-.79-.28-1.68-.78-2.51-3.3-5.57-5.75-9.17-7.27-10.7l-1.97-1.97,2.77-.23c9.92-.83,15.91-4.89,17.78-12.05,.51-1.97,.77-3.75,.77-5.29,0-8.31-6.15-13.27-16.45-13.27h-14.42Zm11.46,24.47h-12.63l4.25-15.67h9.56c4.87,0,8.02,2.71,8.02,6.91,0,.88-.11,1.72-.34,2.56-1.05,3.94-4.28,6.2-8.86,6.2Zm-9.25-2.58h9.25c3.37,0,5.63-1.52,6.37-4.29,.17-.62,.25-1.24,.25-1.88,0-2.75-1.98-4.33-5.44-4.33h-7.59l-2.85,10.5Z"/></g><g><path class="au" d="M7.43,234.22c-4.24,0-7.43-3-7.43-6.99,0-.83,.12-1.61,.36-2.33l10.7-40.07c1.13-4.17,3.86-6.28,8.12-6.28h14.93c11.21,0,19.04,7.07,19.04,17.19,0,1.56-.21,3.28-.62,5.09-2.56,10.79-12.04,16.97-26.03,16.97h-9.06l-2.92,10.94c-.8,3.11-3.85,5.47-7.09,5.47Zm6.13-48.72L2.84,225.65c-.17,.53-.25,1.04-.25,1.59,0,2.89,2.44,4.4,4.84,4.4,2.1,0,4.07-1.52,4.59-3.54l3.44-12.87h11.05c7.46,0,20.42-1.95,23.51-14.97,.37-1.62,.56-3.14,.56-4.51,0-8.73-6.61-14.6-16.45-14.6h-14.93c-3.07,0-4.81,1.35-5.63,4.36h0Zm15.98,20.85h-11.67l4.39-16.34h9.49c5.1,0,8.39,2.83,8.39,7.21,0,.78-.16,1.59-.32,2.35-1.21,4.39-4.86,6.78-10.28,6.78Zm-8.29-2.58h8.29c4.28,0,6.89-1.62,7.78-4.82,.12-.55,.25-1.2,.25-1.73,0-2.89-2.17-4.62-5.81-4.62h-7.51l-3,11.17Z"/><path class="au" d="M83.15,234.37c-14.82,0-25.17-10.05-25.17-24.43,0-1.29,.08-2.6,.23-3.99,2-16.31,15.29-28.13,31.6-28.13,14.82,0,25.17,10.05,25.17,24.43,0,1.29-.08,2.6-.23,3.99-2,16.31-15.29,28.13-31.6,28.13Zm6.65-53.97c-14.98,0-27.19,10.87-29.03,25.85-.14,1.27-.21,2.48-.21,3.69,0,13.07,9.08,21.85,22.59,21.85,14.98,0,27.19-10.87,29.03-25.85,.14-1.27,.21-2.48,.21-3.69,0-13.07-9.08-21.85-22.59-21.85Zm-5.47,42.14c-8.08,0-13.71-5.76-13.71-14.01,0-.86,0-1.74,.17-2.67,1.32-9.22,8.99-16.22,17.83-16.22,8.08,0,13.71,5.76,13.71,14.01,0,.85,0,1.73-.16,2.65-1.33,9.26-9,16.24-17.84,16.24Zm4.29-30.31c-7.57,0-14.14,6.04-15.28,14.05-.13,.75-.13,1.48-.13,2.26,0,6.83,4.47,11.42,11.13,11.42,7.57,0,14.14-6.04,15.28-14.05v-.05c.13-.7,.13-1.43,.13-2.21,0-6.83-4.47-11.42-11.13-11.42Z"/><path class="au" d="M126.26,234.22c-4.03,0-7.43-3.44-7.43-7.5,0-.61,.08-1.18,.27-1.83l10.71-40.05c1.13-4.17,3.86-6.28,8.12-6.28h14.42c11.74,0,19.04,6.08,19.04,15.86,0,1.75-.29,3.75-.85,5.94-1.99,7.59-8.06,12.3-17.62,13.7,1.55,2.03,3.54,5.1,6.02,9.27,.75,1.24,1.14,2.57,1.14,3.84,0,3.71-3.44,6.84-7.5,6.84-2.72,0-5.24-1.45-6.72-3.87l-9.18-14.77c-.62,2.86-1.66,7-3.25,13.3-.83,3.22-3.84,5.56-7.17,5.56Zm11.68-53.08c-3.07,0-4.81,1.35-5.63,4.37l-10.72,40.07c-.13,.45-.18,.78-.18,1.15,0,2.38,1.95,4.92,4.84,4.92,2.16,0,4.12-1.52,4.66-3.61,2.33-9.23,3.46-13.78,3.82-16.34l.49-3.54,12.83,20.63c1.46,2.39,3.65,2.65,4.52,2.65,2.37,0,4.92-1.71,4.92-4.25,0-.79-.28-1.68-.78-2.51-3.3-5.57-5.75-9.17-7.27-10.7l-1.97-1.97,2.77-.23c9.92-.83,15.91-4.89,17.78-12.05,.51-1.97,.77-3.75,.77-5.29,0-8.31-6.15-13.27-16.45-13.27h-14.42Zm11.46,24.47h-12.63l4.25-15.67h9.56c4.87,0,8.02,2.71,8.02,6.91,0,.88-.11,1.72-.34,2.56-1.05,3.94-4.28,6.2-8.86,6.2Zm-9.25-2.58h9.25c3.37,0,5.63-1.52,6.37-4.29,.17-.62,.25-1.24,.25-1.88,0-2.75-1.98-4.33-5.44-4.33h-7.59l-2.85,10.5Z"/></g><g><path class="aw" d="M7.43,234.22c-4.24,0-7.43-3-7.43-6.99,0-.83,.12-1.61,.36-2.33l10.7-40.07c1.13-4.17,3.86-6.28,8.12-6.28h14.93c11.21,0,19.04,7.07,19.04,17.19,0,1.56-.21,3.28-.62,5.09-2.56,10.79-12.04,16.97-26.03,16.97h-9.06l-2.92,10.94c-.8,3.11-3.85,5.47-7.09,5.47Zm6.13-48.72L2.84,225.65c-.17,.53-.25,1.04-.25,1.59,0,2.89,2.44,4.4,4.84,4.4,2.1,0,4.07-1.52,4.59-3.54l3.44-12.87h11.05c7.46,0,20.42-1.95,23.51-14.97,.37-1.62,.56-3.14,.56-4.51,0-8.73-6.61-14.6-16.45-14.6h-14.93c-3.07,0-4.81,1.35-5.63,4.36h0Zm15.98,20.85h-11.67l4.39-16.34h9.49c5.1,0,8.39,2.83,8.39,7.21,0,.78-.16,1.59-.32,2.35-1.21,4.39-4.86,6.78-10.28,6.78Zm-8.29-2.58h8.29c4.28,0,6.89-1.62,7.78-4.82,.12-.55,.25-1.2,.25-1.73,0-2.89-2.17-4.62-5.81-4.62h-7.51l-3,11.17Z"/><path class="aw" d="M83.15,234.37c-14.82,0-25.17-10.05-25.17-24.43,0-1.29,.08-2.6,.23-3.99,2-16.31,15.29-28.13,31.6-28.13,14.82,0,25.17,10.05,25.17,24.43,0,1.29-.08,2.6-.23,3.99-2,16.31-15.29,28.13-31.6,28.13Zm6.65-53.97c-14.98,0-27.19,10.87-29.03,25.85-.14,1.27-.21,2.48-.21,3.69,0,13.07,9.08,21.85,22.59,21.85,14.98,0,27.19-10.87,29.03-25.85,.14-1.27,.21-2.48,.21-3.69,0-13.07-9.08-21.85-22.59-21.85Zm-5.47,42.14c-8.08,0-13.71-5.76-13.71-14.01,0-.86,0-1.74,.17-2.67,1.32-9.22,8.99-16.22,17.83-16.22,8.08,0,13.71,5.76,13.71,14.01,0,.85,0,1.73-.16,2.65-1.33,9.26-9,16.24-17.84,16.24Zm4.29-30.31c-7.57,0-14.14,6.04-15.28,14.05-.13,.75-.13,1.48-.13,2.26,0,6.83,4.47,11.42,11.13,11.42,7.57,0,14.14-6.04,15.28-14.05v-.05c.13-.7,.13-1.43,.13-2.21,0-6.83-4.47-11.42-11.13-11.42Z"/><path class="aw" d="M126.26,234.22c-4.03,0-7.43-3.44-7.43-7.5,0-.61,.08-1.18,.27-1.83l10.71-40.05c1.13-4.17,3.86-6.28,8.12-6.28h14.42c11.74,0,19.04,6.08,19.04,15.86,0,1.75-.29,3.75-.85,5.94-1.99,7.59-8.06,12.3-17.62,13.7,1.55,2.03,3.54,5.1,6.02,9.27,.75,1.24,1.14,2.57,1.14,3.84,0,3.71-3.44,6.84-7.5,6.84-2.72,0-5.24-1.45-6.72-3.87l-9.18-14.77c-.62,2.86-1.66,7-3.25,13.3-.83,3.22-3.84,5.56-7.17,5.56Zm11.68-53.08c-3.07,0-4.81,1.35-5.63,4.37l-10.72,40.07c-.13,.45-.18,.78-.18,1.15,0,2.38,1.95,4.92,4.84,4.92,2.16,0,4.12-1.52,4.66-3.61,2.33-9.23,3.46-13.78,3.82-16.34l.49-3.54,12.83,20.63c1.46,2.39,3.65,2.65,4.52,2.65,2.37,0,4.92-1.71,4.92-4.25,0-.79-.28-1.68-.78-2.51-3.3-5.57-5.75-9.17-7.27-10.7l-1.97-1.97,2.77-.23c9.92-.83,15.91-4.89,17.78-12.05,.51-1.97,.77-3.75,.77-5.29,0-8.31-6.15-13.27-16.45-13.27h-14.42Zm11.46,24.47h-12.63l4.25-15.67h9.56c4.87,0,8.02,2.71,8.02,6.91,0,.88-.11,1.72-.34,2.56-1.05,3.94-4.28,6.2-8.86,6.2Zm-9.25-2.58h9.25c3.37,0,5.63-1.52,6.37-4.29,.17-.62,.25-1.24,.25-1.88,0-2.75-1.98-4.33-5.44-4.33h-7.59l-2.85,10.5Z"/></g></g><g><g><path class="aw" d="M199.41,247.81c-2.68,0-5.29-1.47-7.35-4.14l-10.55-13.72c-5.15-6.69-7.66-13.31-7.66-20.23,0-2.3,.2-4.3,.63-6.13,2.55-11.76,13.37-24.43,31.12-24.43,12.92,0,26.29,9.31,26.29,24.89,0,1.94-.23,3.94-.69,6.11-2.51,11.6-12.62,23.35-27.07,23.35-.64,0-1.25-.02-1.82-.05l2.09,2.73c1.19,1.61,1.76,3.2,1.76,4.89,0,3.66-3.09,6.75-6.75,6.75Zm6.19-65.93c-16.24,0-26.14,11.56-28.46,22.3-.38,1.64-.56,3.45-.56,5.54,0,6.3,2.32,12.37,7.09,18.56l10.55,13.72c1.53,1.99,3.37,3.08,5.19,3.08,2.18,0,4.02-1.84,4.02-4.02,0-1.08-.4-2.14-1.21-3.25l-6.54-8.53,3.86,1.01c1.19,.31,2.73,.47,4.59,.47,13.01,0,22.13-10.66,24.41-21.2,.43-1.98,.63-3.79,.63-5.54,0-13.87-11.98-22.16-23.56-22.16Zm-5.24,41.89c-9.6,0-13.9-6.91-13.9-13.75,0-1.63,.19-3.14,.56-4.49,1.91-7.01,8.35-14.57,17.98-14.57s14.05,6.83,14.05,13.6c0,1.45-.22,3.05-.63,4.63-1.95,7.26-8.29,14.58-18.06,14.58Zm4.65-30.09c-8.2,0-13.71,6.51-15.35,12.56-.31,1.12-.47,2.39-.47,3.77,0,5.33,2.93,11.03,11.17,11.03s13.74-6.31,15.43-12.56c.35-1.35,.54-2.71,.54-3.93,0-5.26-2.97-10.88-11.32-10.88Z"/><path class="aw" d="M260.49,235.72c-13.62,0-22.09-7.42-22.09-19.36,0-2.68,.41-5.51,1.23-8.41l6.27-23.22c.81-3.13,3.88-5.51,7.14-5.51,4.09,0,7.41,3.32,7.41,7.41,0,.65-.09,1.29-.28,1.93l-5.82,21.8c-.4,1.55-.62,3.06-.62,4.37,0,4.48,2.42,6.75,7.19,6.75s8.43-3.47,10.11-9.76l7.3-27c.9-3.24,3.84-5.5,7.14-5.5,4.09,0,7.41,3.32,7.41,7.41,0,.64-.09,1.28-.27,1.92l-6.63,24.83c-3.83,14.4-12.89,22.32-25.51,22.32Zm-7.45-53.76c-2.06,0-4,1.49-4.51,3.47l-6.27,23.25c-.75,2.67-1.13,5.25-1.13,7.68,0,10.41,7.24,16.63,19.36,16.63,11.27,0,19.39-7.21,22.87-20.3l6.64-24.86c.12-.42,.18-.81,.18-1.2,0-2.58-2.1-4.68-4.68-4.68-2.12,0-3.93,1.41-4.51,3.5l-7.3,26.98c-2,7.48-6.65,11.77-12.75,11.77s-9.92-3.45-9.92-9.47c0-1.53,.24-3.29,.71-5.06l5.83-21.84c.12-.41,.18-.81,.18-1.2,0-2.58-2.1-4.68-4.68-4.68Z"/><path class="aw" d="M324,234.9h-23.67c-4.59,0-7.34-2.41-7.34-6.45,0-.64,.06-1.61,.34-2.65l10.55-39.38c1.2-4.39,4.1-6.61,8.62-6.61h22.49c3.88,0,7.04,3.16,7.04,7.04s-3.16,7.04-7.04,7.04h-17.4l-1.77,6.49h10.09c3.8,0,6.89,3.09,6.89,6.89s-3.09,6.89-6.89,6.89h-13.78l-1.78,6.64h13.64c3.88,0,7.04,3.16,7.04,7.04s-3.16,7.04-7.04,7.04Zm-11.51-52.36c-3.27,0-5.11,1.42-5.99,4.6l-10.55,39.38c-.21,.75-.25,1.46-.25,1.93,0,2.47,1.55,3.73,4.61,3.73h23.67c2.38,0,4.32-1.94,4.32-4.32s-1.94-4.32-4.32-4.32h-17.19l3.24-12.09h15.87c2.26,0,4.17-1.91,4.17-4.17s-1.91-4.17-4.17-4.17h-13.66l3.25-11.95h19.48c2.38,0,4.32-1.94,4.32-4.32s-1.94-4.32-4.32-4.32h-22.49Z"/></g><g><path class="av" d="M199.41,247.81c-2.68,0-5.29-1.47-7.35-4.14l-10.55-13.72c-5.15-6.69-7.66-13.31-7.66-20.23,0-2.3,.2-4.3,.63-6.13,2.55-11.76,13.37-24.43,31.12-24.43,12.92,0,26.29,9.31,26.29,24.89,0,1.94-.23,3.94-.69,6.11-2.51,11.6-12.62,23.35-27.07,23.35-.64,0-1.25-.02-1.82-.05l2.09,2.73c1.19,1.61,1.76,3.2,1.76,4.89,0,3.66-3.09,6.75-6.75,6.75Zm6.19-65.93c-16.24,0-26.14,11.56-28.46,22.3-.38,1.64-.56,3.45-.56,5.54,0,6.3,2.32,12.37,7.09,18.56l10.55,13.72c1.53,1.99,3.37,3.08,5.19,3.08,2.18,0,4.02-1.84,4.02-4.02,0-1.08-.4-2.14-1.21-3.25l-6.54-8.53,3.86,1.01c1.19,.31,2.73,.47,4.59,.47,13.01,0,22.13-10.66,24.41-21.2,.43-1.98,.63-3.79,.63-5.54,0-13.87-11.98-22.16-23.56-22.16Zm-5.24,41.89c-9.6,0-13.9-6.91-13.9-13.75,0-1.63,.19-3.14,.56-4.49,1.91-7.01,8.35-14.57,17.98-14.57s14.05,6.83,14.05,13.6c0,1.45-.22,3.05-.63,4.63-1.95,7.26-8.29,14.58-18.06,14.58Zm4.65-30.09c-8.2,0-13.71,6.51-15.35,12.56-.31,1.12-.47,2.39-.47,3.77,0,5.33,2.93,11.03,11.17,11.03s13.74-6.31,15.43-12.56c.35-1.35,.54-2.71,.54-3.93,0-5.26-2.97-10.88-11.32-10.88Z"/><path class="ao" d="M260.49,235.72c-13.62,0-22.09-7.42-22.09-19.36,0-2.68,.41-5.51,1.23-8.41l6.27-23.22c.81-3.13,3.88-5.51,7.14-5.51,4.09,0,7.41,3.32,7.41,7.41,0,.65-.09,1.29-.28,1.93l-5.82,21.8c-.4,1.55-.62,3.06-.62,4.37,0,4.48,2.42,6.75,7.19,6.75s8.43-3.47,10.11-9.76l7.3-27c.9-3.24,3.84-5.5,7.14-5.5,4.09,0,7.41,3.32,7.41,7.41,0,.64-.09,1.28-.27,1.92l-6.63,24.83c-3.83,14.4-12.89,22.32-25.51,22.32Zm-7.45-53.76c-2.06,0-4,1.49-4.51,3.47l-6.27,23.25c-.75,2.67-1.13,5.25-1.13,7.68,0,10.41,7.24,16.63,19.36,16.63,11.27,0,19.39-7.21,22.87-20.3l6.64-24.86c.12-.42,.18-.81,.18-1.2,0-2.58-2.1-4.68-4.68-4.68-2.12,0-3.93,1.41-4.51,3.5l-7.3,26.98c-2,7.48-6.65,11.77-12.75,11.77s-9.92-3.45-9.92-9.47c0-1.53,.24-3.29,.71-5.06l5.83-21.84c.12-.41,.18-.81,.18-1.2,0-2.58-2.1-4.68-4.68-4.68Z"/><path class="aq" d="M324,234.9h-23.67c-4.59,0-7.34-2.41-7.34-6.45,0-.64,.06-1.61,.34-2.65l10.55-39.38c1.2-4.39,4.1-6.61,8.62-6.61h22.49c3.88,0,7.04,3.16,7.04,7.04s-3.16,7.04-7.04,7.04h-17.4l-1.77,6.49h10.09c3.8,0,6.89,3.09,6.89,6.89s-3.09,6.89-6.89,6.89h-13.78l-1.78,6.64h13.64c3.88,0,7.04,3.16,7.04,7.04s-3.16,7.04-7.04,7.04Zm-11.51-52.36c-3.27,0-5.11,1.42-5.99,4.6l-10.55,39.38c-.21,.75-.25,1.46-.25,1.93,0,2.47,1.55,3.73,4.61,3.73h23.67c2.38,0,4.32-1.94,4.32-4.32s-1.94-4.32-4.32-4.32h-17.19l3.24-12.09h15.87c2.26,0,4.17-1.91,4.17-4.17s-1.91-4.17-4.17-4.17h-13.66l3.25-11.95h19.48c2.38,0,4.32-1.94,4.32-4.32s-1.94-4.32-4.32-4.32h-22.49Z"/></g><g><path class="aw" d="M199.41,247.81c-2.68,0-5.29-1.47-7.35-4.14l-10.55-13.72c-5.15-6.69-7.66-13.31-7.66-20.23,0-2.3,.2-4.3,.63-6.13,2.55-11.76,13.37-24.43,31.12-24.43,12.92,0,26.29,9.31,26.29,24.89,0,1.94-.23,3.94-.69,6.11-2.51,11.6-12.62,23.35-27.07,23.35-.64,0-1.25-.02-1.82-.05l2.09,2.73c1.19,1.61,1.76,3.2,1.76,4.89,0,3.66-3.09,6.75-6.75,6.75Zm6.19-65.93c-16.24,0-26.14,11.56-28.46,22.3-.38,1.64-.56,3.45-.56,5.54,0,6.3,2.32,12.37,7.09,18.56l10.55,13.72c1.53,1.99,3.37,3.08,5.19,3.08,2.18,0,4.02-1.84,4.02-4.02,0-1.08-.4-2.14-1.21-3.25l-6.54-8.53,3.86,1.01c1.19,.31,2.73,.47,4.59,.47,13.01,0,22.13-10.66,24.41-21.2,.43-1.98,.63-3.79,.63-5.54,0-13.87-11.98-22.16-23.56-22.16Zm-5.24,41.89c-9.6,0-13.9-6.91-13.9-13.75,0-1.63,.19-3.14,.56-4.49,1.91-7.01,8.35-14.57,17.98-14.57s14.05,6.83,14.05,13.6c0,1.45-.22,3.05-.63,4.63-1.95,7.26-8.29,14.58-18.06,14.58Zm4.65-30.09c-8.2,0-13.71,6.51-15.35,12.56-.31,1.12-.47,2.39-.47,3.77,0,5.33,2.93,11.03,11.17,11.03s13.74-6.31,15.43-12.56c.35-1.35,.54-2.71,.54-3.93,0-5.26-2.97-10.88-11.32-10.88Z"/><path class="aw" d="M260.49,235.72c-13.62,0-22.09-7.42-22.09-19.36,0-2.68,.41-5.51,1.23-8.41l6.27-23.22c.81-3.13,3.88-5.51,7.14-5.51,4.09,0,7.41,3.32,7.41,7.41,0,.65-.09,1.29-.28,1.93l-5.82,21.8c-.4,1.55-.62,3.06-.62,4.37,0,4.48,2.42,6.75,7.19,6.75s8.43-3.47,10.11-9.76l7.3-27c.9-3.24,3.84-5.5,7.14-5.5,4.09,0,7.41,3.32,7.41,7.41,0,.64-.09,1.28-.27,1.92l-6.63,24.83c-3.83,14.4-12.89,22.32-25.51,22.32Zm-7.45-53.76c-2.06,0-4,1.49-4.51,3.47l-6.27,23.25c-.75,2.67-1.13,5.25-1.13,7.68,0,10.41,7.24,16.63,19.36,16.63,11.27,0,19.39-7.21,22.87-20.3l6.64-24.86c.12-.42,.18-.81,.18-1.2,0-2.58-2.1-4.68-4.68-4.68-2.12,0-3.93,1.41-4.51,3.5l-7.3,26.98c-2,7.48-6.65,11.77-12.75,11.77s-9.92-3.45-9.92-9.47c0-1.53,.24-3.29,.71-5.06l5.83-21.84c.12-.41,.18-.81,.18-1.2,0-2.58-2.1-4.68-4.68-4.68Z"/><path class="aw" d="M324,234.9h-23.67c-4.59,0-7.34-2.41-7.34-6.45,0-.64,.06-1.61,.34-2.65l10.55-39.38c1.2-4.39,4.1-6.61,8.62-6.61h22.49c3.88,0,7.04,3.16,7.04,7.04s-3.16,7.04-7.04,7.04h-17.4l-1.77,6.49h10.09c3.8,0,6.89,3.09,6.89,6.89s-3.09,6.89-6.89,6.89h-13.78l-1.78,6.64h13.64c3.88,0,7.04,3.16,7.04,7.04s-3.16,7.04-7.04,7.04Zm-11.51-52.36c-3.27,0-5.11,1.42-5.99,4.6l-10.55,39.38c-.21,.75-.25,1.46-.25,1.93,0,2.47,1.55,3.73,4.61,3.73h23.67c2.38,0,4.32-1.94,4.32-4.32s-1.94-4.32-4.32-4.32h-17.19l3.24-12.09h15.87c2.26,0,4.17-1.91,4.17-4.17s-1.91-4.17-4.17-4.17h-13.66l3.25-11.95h19.48c2.38,0,4.32-1.94,4.32-4.32s-1.94-4.32-4.32-4.32h-22.49Z"/></g></g><g><g><g><path class="aw" d="M23.93,125.42L1.31,69.02c-.6-1.51-.91-3.02-.91-4.37,0-6.33,5.73-10.41,11.31-10.41,4.07,0,7.99,2.11,9.65,6.94,10.86,31.22,14.78,42.83,17.04,51.88,1.81-9.5,4.83-19.3,15.84-51.28,1.96-5.73,6.03-7.39,9.8-7.39,5.58,0,11.31,4.07,11.31,10.1,0,1.21-.15,2.56-.75,3.92l-21.87,56.71c-2.26,5.88-7.84,9.95-14.48,9.95s-12.07-4.07-14.33-9.65Z"/><path class="aw" d="M85.47,35.23c0-6.64,5.43-12.07,12.07-12.07s12.07,5.43,12.07,12.07-5.43,12.07-12.07,12.07-12.07-5.43-12.07-12.07Zm1.36,29.56c0-6.94,5.43-10.71,10.71-10.71s10.71,3.77,10.71,10.71v59.57c0,6.94-5.28,10.71-10.71,10.71-5.13,0-10.71-3.62-10.71-10.71v-59.57Z"/><path class="aw" d="M207.63,65.1v59.27c0,6.94-5.28,10.71-10.71,10.71s-10.86-3.77-10.86-10.71v-3.92c-3.92,9.35-14.33,15.08-27.45,15.08-23.83,0-38-18.7-38-41.17s14.93-40.87,39.21-40.87c9.8,0,20.21,4.37,26.24,13.12v-1.51c0-7.24,5.43-10.71,10.86-10.71s10.71,3.47,10.71,10.71Zm-21.72,29.41c0-12.37-9.05-21.57-21.72-21.57s-22.02,9.05-22.02,21.57,9.2,21.87,22.02,21.87,21.72-9.35,21.72-21.87Z"/><path class="aw" d="M224.07,64.79c0-6.94,5.43-10.71,10.71-10.71s10.71,3.77,10.71,10.71v94.86c0,6.94-5.28,10.71-10.71,10.71s-10.71-3.77-10.71-10.71V64.79Z"/><path class="aw" d="M257.86,94.5c0-23.68,17.8-41.02,42.53-41.02s42.68,17.34,42.68,41.02-17.95,41.02-42.68,41.02-42.53-17.19-42.53-41.02Zm64.4,0c0-12.52-9.2-21.72-21.87-21.72s-21.72,9.2-21.72,21.72,9.2,21.72,21.72,21.72,21.87-9.2,21.87-21.72Z"/></g><g><g><path class="aw" d="M23.56,348.84L.91,292.37c-.6-1.51-.91-3.02-.91-4.38,0-6.34,5.74-10.42,11.32-10.42,4.08,0,8,2.11,9.66,6.95,10.87,31.26,14.8,42.88,17.06,51.94,1.81-9.51,4.83-19.33,15.85-51.34,1.96-5.74,6.04-7.4,9.81-7.4,5.59,0,11.32,4.08,11.32,10.12,0,1.21-.15,2.57-.75,3.93l-21.89,56.77c-2.26,5.89-7.85,9.97-14.5,9.97s-12.08-4.08-14.34-9.66Z"/><path class="aw" d="M85.16,258.55c0-6.64,5.44-12.08,12.08-12.08s12.08,5.43,12.08,12.08-5.44,12.08-12.08,12.08-12.08-5.44-12.08-12.08Zm1.36,29.6c0-6.95,5.44-10.72,10.72-10.72s10.72,3.78,10.72,10.72v59.64c0,6.94-5.28,10.72-10.72,10.72-5.13,0-10.72-3.62-10.72-10.72v-59.64Z"/><path class="aw" d="M207.47,288.45v59.34c0,6.94-5.29,10.72-10.72,10.72s-10.87-3.78-10.87-10.72v-3.93c-3.93,9.36-14.34,15.1-27.48,15.1-23.86,0-38.05-18.73-38.05-41.22s14.95-40.92,39.26-40.92c9.81,0,20.23,4.38,26.27,13.14v-1.51c0-7.25,5.44-10.72,10.87-10.72s10.72,3.47,10.72,10.72Zm-21.74,29.44c0-12.38-9.06-21.59-21.74-21.59s-22.05,9.06-22.05,21.59,9.21,21.9,22.05,21.9,21.74-9.36,21.74-21.9Z"/><path class="aw" d="M223.93,288.14c0-6.95,5.44-10.72,10.72-10.72s10.72,3.78,10.72,10.72v94.98c0,6.95-5.28,10.72-10.72,10.72s-10.72-3.77-10.72-10.72v-94.98Z"/><path class="aw" d="M257.76,317.89c0-23.71,17.82-41.07,42.58-41.07s42.73,17.36,42.73,41.07-17.97,41.07-42.73,41.07-42.58-17.21-42.58-41.07Zm64.47,0c0-12.53-9.21-21.74-21.89-21.74s-21.74,9.21-21.74,21.74,9.21,21.74,21.74,21.74,21.89-9.21,21.89-21.74Z"/></g><g><path class="aw" d="M23.56,348.84L.91,292.37c-.6-1.51-.91-3.02-.91-4.38,0-6.34,5.74-10.42,11.32-10.42,4.08,0,8,2.11,9.66,6.95,10.87,31.26,14.8,42.88,17.06,51.94,1.81-9.51,4.83-19.33,15.85-51.34,1.96-5.74,6.04-7.4,9.81-7.4,5.59,0,11.32,4.08,11.32,10.12,0,1.21-.15,2.57-.75,3.93l-21.89,56.77c-2.26,5.89-7.85,9.97-14.5,9.97s-12.08-4.08-14.34-9.66Z"/><path class="aw" d="M85.16,258.55c0-6.64,5.44-12.08,12.08-12.08s12.08,5.43,12.08,12.08-5.44,12.08-12.08,12.08-12.08-5.44-12.08-12.08Zm1.36,29.6c0-6.95,5.44-10.72,10.72-10.72s10.72,3.78,10.72,10.72v59.64c0,6.94-5.28,10.72-10.72,10.72-5.13,0-10.72-3.62-10.72-10.72v-59.64Z"/><path class="aw" d="M207.47,288.45v59.34c0,6.94-5.29,10.72-10.72,10.72s-10.87-3.78-10.87-10.72v-3.93c-3.93,9.36-14.34,15.1-27.48,15.1-23.86,0-38.05-18.73-38.05-41.22s14.95-40.92,39.26-40.92c9.81,0,20.23,4.38,26.27,13.14v-1.51c0-7.25,5.44-10.72,10.87-10.72s10.72,3.47,10.72,10.72Zm-21.74,29.44c0-12.38-9.06-21.59-21.74-21.59s-22.05,9.06-22.05,21.59,9.21,21.9,22.05,21.9,21.74-9.36,21.74-21.9Z"/><path class="aw" d="M223.93,288.14c0-6.95,5.44-10.72,10.72-10.72s10.72,3.78,10.72,10.72v94.98c0,6.95-5.28,10.72-10.72,10.72s-10.72-3.77-10.72-10.72v-94.98Z"/><path class="aw" d="M257.76,317.89c0-23.71,17.82-41.07,42.58-41.07s42.73,17.36,42.73,41.07-17.97,41.07-42.73,41.07-42.58-17.21-42.58-41.07Zm64.47,0c0-12.53-9.21-21.74-21.89-21.74s-21.74,9.21-21.74,21.74,9.21,21.74,21.74,21.74,21.89-9.21,21.89-21.74Z"/></g><g><path class="aw" d="M23.56,348.84L.91,292.37c-.6-1.51-.91-3.02-.91-4.38,0-6.34,5.74-10.42,11.32-10.42,4.08,0,8,2.11,9.66,6.95,10.87,31.26,14.8,42.88,17.06,51.94,1.81-9.51,4.83-19.33,15.85-51.34,1.96-5.74,6.04-7.4,9.81-7.4,5.59,0,11.32,4.08,11.32,10.12,0,1.21-.15,2.57-.75,3.93l-21.89,56.77c-2.26,5.89-7.85,9.97-14.5,9.97s-12.08-4.08-14.34-9.66Z"/><path class="aw" d="M85.16,258.55c0-6.64,5.44-12.08,12.08-12.08s12.08,5.43,12.08,12.08-5.44,12.08-12.08,12.08-12.08-5.44-12.08-12.08Zm1.36,29.6c0-6.95,5.44-10.72,10.72-10.72s10.72,3.78,10.72,10.72v59.64c0,6.94-5.28,10.72-10.72,10.72-5.13,0-10.72-3.62-10.72-10.72v-59.64Z"/><path class="aw" d="M207.47,288.45v59.34c0,6.94-5.29,10.72-10.72,10.72s-10.87-3.78-10.87-10.72v-3.93c-3.93,9.36-14.34,15.1-27.48,15.1-23.86,0-38.05-18.73-38.05-41.22s14.95-40.92,39.26-40.92c9.81,0,20.23,4.38,26.27,13.14v-1.51c0-7.25,5.44-10.72,10.87-10.72s10.72,3.47,10.72,10.72Zm-21.74,29.44c0-12.38-9.06-21.59-21.74-21.59s-22.05,9.06-22.05,21.59,9.21,21.9,22.05,21.9,21.74-9.36,21.74-21.9Z"/><path class="aw" d="M223.93,288.14c0-6.95,5.44-10.72,10.72-10.72s10.72,3.78,10.72,10.72v94.98c0,6.95-5.28,10.72-10.72,10.72s-10.72-3.77-10.72-10.72v-94.98Z"/><path class="aw" d="M257.76,317.89c0-23.71,17.82-41.07,42.58-41.07s42.73,17.36,42.73,41.07-17.97,41.07-42.73,41.07-42.58-17.21-42.58-41.07Zm64.47,0c0-12.53-9.21-21.74-21.89-21.74s-21.74,9.21-21.74,21.74,9.21,21.74,21.74,21.74,21.89-9.21,21.89-21.74Z"/></g></g><path class="aw" d="M235.61,0c-12,0-20.63,8.42-20.63,19.9,0,2.78,.49,5.39,1.43,7.72h-.14l.31,.42c1.15,2.68,2.85,5.04,5.01,6.85,1.99,1.74,4.41,3.02,7.09,3.86l4.79,6.55c1.01,1.38,3.06,1.38,4.07,0l4.73-6.45c2.52-.75,4.82-1.87,6.77-3.4,4.56-3.55,7.31-9.05,7.31-15.55,0-11.48-8.73-19.9-20.74-19.9Zm7.48,27.62c-1.88,1.81-4.49,2.85-7.48,2.85s-5.53-1.04-7.41-2.85c-1.95-1.91-3.13-4.59-3.13-7.72,0-6.05,4.49-10.54,10.54-10.54s10.65,4.49,10.65,10.54c0,3.13-1.18,5.81-3.17,7.72Z"/><path class="af" d="M223.21,258.55c0-6.64,5.44-12.08,12.08-12.08s12.08,5.43,12.08,12.08-5.44,12.08-12.08,12.08-12.08-5.44-12.08-12.08Z"/></g><g><g><path class="at" d="M23.93,125.42L1.31,69.02c-.6-1.51-.91-3.02-.91-4.37,0-6.33,5.73-10.41,11.31-10.41,4.07,0,7.99,2.11,9.65,6.94,10.86,31.22,14.78,42.83,17.04,51.88,1.81-9.5,4.83-19.3,15.84-51.28,1.96-5.73,6.03-7.39,9.8-7.39,5.58,0,11.31,4.07,11.31,10.1,0,1.21-.15,2.56-.75,3.92l-21.87,56.71c-2.26,5.88-7.84,9.95-14.48,9.95s-12.07-4.07-14.33-9.65Z"/><path class="as" d="M85.47,35.23c0-6.64,5.43-12.07,12.07-12.07s12.07,5.43,12.07,12.07-5.43,12.07-12.07,12.07-12.07-5.43-12.07-12.07Zm1.36,29.56c0-6.94,5.43-10.71,10.71-10.71s10.71,3.77,10.71,10.71v59.57c0,6.94-5.28,10.71-10.71,10.71-5.13,0-10.71-3.62-10.71-10.71v-59.57Z"/><path class="bd" d="M207.63,65.1v59.27c0,6.94-5.28,10.71-10.71,10.71s-10.86-3.77-10.86-10.71v-3.92c-3.92,9.35-14.33,15.08-27.45,15.08-23.83,0-38-18.7-38-41.17s14.93-40.87,39.21-40.87c9.8,0,20.21,4.37,26.24,13.12v-1.51c0-7.24,5.43-10.71,10.86-10.71s10.71,3.47,10.71,10.71Zm-21.72,29.41c0-12.37-9.05-21.57-21.72-21.57s-22.02,9.05-22.02,21.57,9.2,21.87,22.02,21.87,21.72-9.35,21.72-21.87Z"/><path class="bg" d="M224.07,64.79c0-6.94,5.43-10.71,10.71-10.71s10.71,3.77,10.71,10.71v94.86c0,6.94-5.28,10.71-10.71,10.71s-10.71-3.77-10.71-10.71V64.79Z"/><path class="ai" d="M257.86,94.5c0-23.68,17.8-41.02,42.53-41.02s42.68,17.34,42.68,41.02-17.95,41.02-42.68,41.02-42.53-17.19-42.53-41.02Zm64.4,0c0-12.52-9.2-21.72-21.87-21.72s-21.72,9.2-21.72,21.72,9.2,21.72,21.72,21.72,21.87-9.2,21.87-21.72Z"/></g><g><g><path class="am" d="M23.56,348.84L.91,292.37c-.6-1.51-.91-3.02-.91-4.38,0-6.34,5.74-10.42,11.32-10.42,4.08,0,8,2.11,9.66,6.95,10.87,31.26,14.8,42.88,17.06,51.94,1.81-9.51,4.83-19.33,15.85-51.34,1.96-5.74,6.04-7.4,9.81-7.4,5.59,0,11.32,4.08,11.32,10.12,0,1.21-.15,2.57-.75,3.93l-21.89,56.77c-2.26,5.89-7.85,9.97-14.5,9.97s-12.08-4.08-14.34-9.66Z"/><path class="ba" d="M85.16,258.55c0-6.64,5.44-12.08,12.08-12.08s12.08,5.43,12.08,12.08-5.44,12.08-12.08,12.08-12.08-5.44-12.08-12.08Zm1.36,29.6c0-6.95,5.44-10.72,10.72-10.72s10.72,3.78,10.72,10.72v59.64c0,6.94-5.28,10.72-10.72,10.72-5.13,0-10.72-3.62-10.72-10.72v-59.64Z"/><path class="be" d="M207.47,288.45v59.34c0,6.94-5.29,10.72-10.72,10.72s-10.87-3.78-10.87-10.72v-3.93c-3.93,9.36-14.34,15.1-27.48,15.1-23.86,0-38.05-18.73-38.05-41.22s14.95-40.92,39.26-40.92c9.81,0,20.23,4.38,26.27,13.14v-1.51c0-7.25,5.44-10.72,10.87-10.72s10.72,3.47,10.72,10.72Zm-21.74,29.44c0-12.38-9.06-21.59-21.74-21.59s-22.05,9.06-22.05,21.59,9.21,21.9,22.05,21.9,21.74-9.36,21.74-21.9Z"/><path class="ap" d="M223.93,288.14c0-6.95,5.44-10.72,10.72-10.72s10.72,3.78,10.72,10.72v94.98c0,6.95-5.28,10.72-10.72,10.72s-10.72-3.77-10.72-10.72v-94.98Z"/><path class="bf" d="M257.76,317.89c0-23.71,17.82-41.07,42.58-41.07s42.73,17.36,42.73,41.07-17.97,41.07-42.73,41.07-42.58-17.21-42.58-41.07Zm64.47,0c0-12.53-9.21-21.74-21.89-21.74s-21.74,9.21-21.74,21.74,9.21,21.74,21.74,21.74,21.89-9.21,21.89-21.74Z"/></g><g><path class="ag" d="M23.56,348.84L.91,292.37c-.6-1.51-.91-3.02-.91-4.38,0-6.34,5.74-10.42,11.32-10.42,4.08,0,8,2.11,9.66,6.95,10.87,31.26,14.8,42.88,17.06,51.94,1.81-9.51,4.83-19.33,15.85-51.34,1.96-5.74,6.04-7.4,9.81-7.4,5.59,0,11.32,4.08,11.32,10.12,0,1.21-.15,2.57-.75,3.93l-21.89,56.77c-2.26,5.89-7.85,9.97-14.5,9.97s-12.08-4.08-14.34-9.66Z"/><path class="b`" d="M85.16,258.55c0-6.64,5.44-12.08,12.08-12.08s12.08,5.43,12.08,12.08-5.44,12.08-12.08,12.08-12.08-5.44-12.08-12.08Zm1.36,29.6c0-6.95,5.44-10.72,10.72-10.72s10.72,3.78,10.72,10.72v59.64c0,6.94-5.28,10.72-10.72,10.72-5.13,0-10.72-3.62-10.72-10.72v-59.64Z"/><path class="ae" d="M207.47,288.45v59.34c0,6.94-5.29,10.72-10.72,10.72s-10.87-3.78-10.87-10.72v-3.93c-3.93,9.36-14.34,15.1-27.48,15.1-23.86,0-38.05-18.73-38.05-41.22s14.95-40.92,39.26-40.92c9.81,0,20.23,4.38,26.27,13.14v-1.51c0-7.25,5.44-10.72,10.87-10.72s10.72,3.47,10.72,10.72Zm-21.74,29.44c0-12.38-9.06-21.59-21.74-21.59s-22.05,9.06-22.05,21.59,9.21,21.9,22.05,21.9,21.74-9.36,21.74-21.9Z"/><path class="aj" d="M223.93,288.14c0-6.95,5.44-10.72,10.72-10.72s10.72,3.78,10.72,10.72v94.98c0,6.95-5.28,10.72-10.72,10.72s-10.72-3.77-10.72-10.72v-94.98Z"/><path class="ak" d="M257.76,317.89c0-23.71,17.82-41.07,42.58-41.07s42.73,17.36,42.73,41.07-17.97,41.07-42.73,41.07-42.58-17.21-42.58-41.07Zm64.47,0c0-12.53-9.21-21.74-21.89-21.74s-21.74,9.21-21.74,21.74,9.21,21.74,21.74,21.74,21.89-9.21,21.89-21.74Z"/></g><g><path class="bc" d="M23.56,348.84L.91,292.37c-.6-1.51-.91-3.02-.91-4.38,0-6.34,5.74-10.42,11.32-10.42,4.08,0,8,2.11,9.66,6.95,10.87,31.26,14.8,42.88,17.06,51.94,1.81-9.51,4.83-19.33,15.85-51.34,1.96-5.74,6.04-7.4,9.81-7.4,5.59,0,11.32,4.08,11.32,10.12,0,1.21-.15,2.57-.75,3.93l-21.89,56.77c-2.26,5.89-7.85,9.97-14.5,9.97s-12.08-4.08-14.34-9.66Z"/><path class="ax" d="M85.16,258.55c0-6.64,5.44-12.08,12.08-12.08s12.08,5.43,12.08,12.08-5.44,12.08-12.08,12.08-12.08-5.44-12.08-12.08Zm1.36,29.6c0-6.95,5.44-10.72,10.72-10.72s10.72,3.78,10.72,10.72v59.64c0,6.94-5.28,10.72-10.72,10.72-5.13,0-10.72-3.62-10.72-10.72v-59.64Z"/><path class="ah" d="M207.47,288.45v59.34c0,6.94-5.29,10.72-10.72,10.72s-10.87-3.78-10.87-10.72v-3.93c-3.93,9.36-14.34,15.1-27.48,15.1-23.86,0-38.05-18.73-38.05-41.22s14.95-40.92,39.26-40.92c9.81,0,20.23,4.38,26.27,13.14v-1.51c0-7.25,5.44-10.72,10.87-10.72s10.72,3.47,10.72,10.72Zm-21.74,29.44c0-12.38-9.06-21.59-21.74-21.59s-22.05,9.06-22.05,21.59,9.21,21.9,22.05,21.9,21.74-9.36,21.74-21.9Z"/><path class="al" d="M223.93,288.14c0-6.95,5.44-10.72,10.72-10.72s10.72,3.78,10.72,10.72v94.98c0,6.95-5.28,10.72-10.72,10.72s-10.72-3.77-10.72-10.72v-94.98Z"/><path class="ay" d="M257.76,317.89c0-23.71,17.82-41.07,42.58-41.07s42.73,17.36,42.73,41.07-17.97,41.07-42.73,41.07-42.58-17.21-42.58-41.07Zm64.47,0c0-12.53-9.21-21.74-21.89-21.74s-21.74,9.21-21.74,21.74,9.21,21.74,21.74,21.74,21.89-9.21,21.89-21.74Z"/></g></g><path class="ar" d="M235.61,0c-12,0-20.63,8.42-20.63,19.9,0,2.78,.49,5.39,1.43,7.72h-.14l.31,.42c1.15,2.68,2.85,5.04,5.01,6.85,1.99,1.74,4.41,3.02,7.09,3.86l4.79,6.55c1.01,1.38,3.06,1.38,4.07,0l4.73-6.45c2.52-.75,4.82-1.87,6.77-3.4,4.56-3.55,7.31-9.05,7.31-15.55,0-11.48-8.73-19.9-20.74-19.9Zm7.48,27.62c-1.88,1.81-4.49,2.85-7.48,2.85s-5.53-1.04-7.41-2.85c-1.95-1.91-3.13-4.59-3.13-7.72,0-6.05,4.49-10.54,10.54-10.54s10.65,4.49,10.65,10.54c0,3.13-1.18,5.81-3.17,7.72Z"/><path class="bb" d="M223.21,258.55c0-6.64,5.44-12.08,12.08-12.08s12.08,5.43,12.08,12.08-5.44,12.08-12.08,12.08-12.08-5.44-12.08-12.08Z"/></g><g><g><path class="aw" d="M23.93,125.42L1.31,69.02c-.6-1.51-.91-3.02-.91-4.37,0-6.33,5.73-10.41,11.31-10.41,4.07,0,7.99,2.11,9.65,6.94,10.86,31.22,14.78,42.83,17.04,51.88,1.81-9.5,4.83-19.3,15.84-51.28,1.96-5.73,6.03-7.39,9.8-7.39,5.58,0,11.31,4.07,11.31,10.1,0,1.21-.15,2.56-.75,3.92l-21.87,56.71c-2.26,5.88-7.84,9.95-14.48,9.95s-12.07-4.07-14.33-9.65Z"/><path class="aw" d="M85.47,35.23c0-6.64,5.43-12.07,12.07-12.07s12.07,5.43,12.07,12.07-5.43,12.07-12.07,12.07-12.07-5.43-12.07-12.07Zm1.36,29.56c0-6.94,5.43-10.71,10.71-10.71s10.71,3.77,10.71,10.71v59.57c0,6.94-5.28,10.71-10.71,10.71-5.13,0-10.71-3.62-10.71-10.71v-59.57Z"/><path class="aw" d="M207.63,65.1v59.27c0,6.94-5.28,10.71-10.71,10.71s-10.86-3.77-10.86-10.71v-3.92c-3.92,9.35-14.33,15.08-27.45,15.08-23.83,0-38-18.7-38-41.17s14.93-40.87,39.21-40.87c9.8,0,20.21,4.37,26.24,13.12v-1.51c0-7.24,5.43-10.71,10.86-10.71s10.71,3.47,10.71,10.71Zm-21.72,29.41c0-12.37-9.05-21.57-21.72-21.57s-22.02,9.05-22.02,21.57,9.2,21.87,22.02,21.87,21.72-9.35,21.72-21.87Z"/><path class="aw" d="M224.07,64.79c0-6.94,5.43-10.71,10.71-10.71s10.71,3.77,10.71,10.71v94.86c0,6.94-5.28,10.71-10.71,10.71s-10.71-3.77-10.71-10.71V64.79Z"/><path class="aw" d="M257.86,94.5c0-23.68,17.8-41.02,42.53-41.02s42.68,17.34,42.68,41.02-17.95,41.02-42.68,41.02-42.53-17.19-42.53-41.02Zm64.4,0c0-12.52-9.2-21.72-21.87-21.72s-21.72,9.2-21.72,21.72,9.2,21.72,21.72,21.72,21.87-9.2,21.87-21.72Z"/></g><g><g><path class="aw" d="M23.56,348.84L.91,292.37c-.6-1.51-.91-3.02-.91-4.38,0-6.34,5.74-10.42,11.32-10.42,4.08,0,8,2.11,9.66,6.95,10.87,31.26,14.8,42.88,17.06,51.94,1.81-9.51,4.83-19.33,15.85-51.34,1.96-5.74,6.04-7.4,9.81-7.4,5.59,0,11.32,4.08,11.32,10.12,0,1.21-.15,2.57-.75,3.93l-21.89,56.77c-2.26,5.89-7.85,9.97-14.5,9.97s-12.08-4.08-14.34-9.66Z"/><path class="aw" d="M85.16,258.55c0-6.64,5.44-12.08,12.08-12.08s12.08,5.43,12.08,12.08-5.44,12.08-12.08,12.08-12.08-5.44-12.08-12.08Zm1.36,29.6c0-6.95,5.44-10.72,10.72-10.72s10.72,3.78,10.72,10.72v59.64c0,6.94-5.28,10.72-10.72,10.72-5.13,0-10.72-3.62-10.72-10.72v-59.64Z"/><path class="aw" d="M207.47,288.45v59.34c0,6.94-5.29,10.72-10.72,10.72s-10.87-3.78-10.87-10.72v-3.93c-3.93,9.36-14.34,15.1-27.48,15.1-23.86,0-38.05-18.73-38.05-41.22s14.95-40.92,39.26-40.92c9.81,0,20.23,4.38,26.27,13.14v-1.51c0-7.25,5.44-10.72,10.87-10.72s10.72,3.47,10.72,10.72Zm-21.74,29.44c0-12.38-9.06-21.59-21.74-21.59s-22.05,9.06-22.05,21.59,9.21,21.9,22.05,21.9,21.74-9.36,21.74-21.9Z"/><path class="aw" d="M223.93,288.14c0-6.95,5.44-10.72,10.72-10.72s10.72,3.78,10.72,10.72v94.98c0,6.95-5.28,10.72-10.72,10.72s-10.72-3.77-10.72-10.72v-94.98Z"/><path class="aw" d="M257.76,317.89c0-23.71,17.82-41.07,42.58-41.07s42.73,17.36,42.73,41.07-17.97,41.07-42.73,41.07-42.58-17.21-42.58-41.07Zm64.47,0c0-12.53-9.21-21.74-21.89-21.74s-21.74,9.21-21.74,21.74,9.21,21.74,21.74,21.74,21.89-9.21,21.89-21.74Z"/></g><g><path class="aw" d="M23.56,348.84L.91,292.37c-.6-1.51-.91-3.02-.91-4.38,0-6.34,5.74-10.42,11.32-10.42,4.08,0,8,2.11,9.66,6.95,10.87,31.26,14.8,42.88,17.06,51.94,1.81-9.51,4.83-19.33,15.85-51.34,1.96-5.74,6.04-7.4,9.81-7.4,5.59,0,11.32,4.08,11.32,10.12,0,1.21-.15,2.57-.75,3.93l-21.89,56.77c-2.26,5.89-7.85,9.97-14.5,9.97s-12.08-4.08-14.34-9.66Z"/><path class="aw" d="M85.16,258.55c0-6.64,5.44-12.08,12.08-12.08s12.08,5.43,12.08,12.08-5.44,12.08-12.08,12.08-12.08-5.44-12.08-12.08Zm1.36,29.6c0-6.95,5.44-10.72,10.72-10.72s10.72,3.78,10.72,10.72v59.64c0,6.94-5.28,10.72-10.72,10.72-5.13,0-10.72-3.62-10.72-10.72v-59.64Z"/><path class="aw" d="M207.47,288.45v59.34c0,6.94-5.29,10.72-10.72,10.72s-10.87-3.78-10.87-10.72v-3.93c-3.93,9.36-14.34,15.1-27.48,15.1-23.86,0-38.05-18.73-38.05-41.22s14.95-40.92,39.26-40.92c9.81,0,20.23,4.38,26.27,13.14v-1.51c0-7.25,5.44-10.72,10.87-10.72s10.72,3.47,10.72,10.72Zm-21.74,29.44c0-12.38-9.06-21.59-21.74-21.59s-22.05,9.06-22.05,21.59,9.21,21.9,22.05,21.9,21.74-9.36,21.74-21.9Z"/><path class="aw" d="M223.93,288.14c0-6.95,5.44-10.72,10.72-10.72s10.72,3.78,10.72,10.72v94.98c0,6.95-5.28,10.72-10.72,10.72s-10.72-3.77-10.72-10.72v-94.98Z"/><path class="aw" d="M257.76,317.89c0-23.71,17.82-41.07,42.58-41.07s42.73,17.36,42.73,41.07-17.97,41.07-42.73,41.07-42.58-17.21-42.58-41.07Zm64.47,0c0-12.53-9.21-21.74-21.89-21.74s-21.74,9.21-21.74,21.74,9.21,21.74,21.74,21.74,21.89-9.21,21.89-21.74Z"/></g><g><path class="aw" d="M23.56,348.84L.91,292.37c-.6-1.51-.91-3.02-.91-4.38,0-6.34,5.74-10.42,11.32-10.42,4.08,0,8,2.11,9.66,6.95,10.87,31.26,14.8,42.88,17.06,51.94,1.81-9.51,4.83-19.33,15.85-51.34,1.96-5.74,6.04-7.4,9.81-7.4,5.59,0,11.32,4.08,11.32,10.12,0,1.21-.15,2.57-.75,3.93l-21.89,56.77c-2.26,5.89-7.85,9.97-14.5,9.97s-12.08-4.08-14.34-9.66Z"/><path class="aw" d="M85.16,258.55c0-6.64,5.44-12.08,12.08-12.08s12.08,5.43,12.08,12.08-5.44,12.08-12.08,12.08-12.08-5.44-12.08-12.08Zm1.36,29.6c0-6.95,5.44-10.72,10.72-10.72s10.72,3.78,10.72,10.72v59.64c0,6.94-5.28,10.72-10.72,10.72-5.13,0-10.72-3.62-10.72-10.72v-59.64Z"/><path class="aw" d="M207.47,288.45v59.34c0,6.94-5.29,10.72-10.72,10.72s-10.87-3.78-10.87-10.72v-3.93c-3.93,9.36-14.34,15.1-27.48,15.1-23.86,0-38.05-18.73-38.05-41.22s14.95-40.92,39.26-40.92c9.81,0,20.23,4.38,26.27,13.14v-1.51c0-7.25,5.44-10.72,10.87-10.72s10.72,3.47,10.72,10.72Zm-21.74,29.44c0-12.38-9.06-21.59-21.74-21.59s-22.05,9.06-22.05,21.59,9.21,21.9,22.05,21.9,21.74-9.36,21.74-21.9Z"/><path class="aw" d="M223.93,288.14c0-6.95,5.44-10.72,10.72-10.72s10.72,3.78,10.72,10.72v94.98c0,6.95-5.28,10.72-10.72,10.72s-10.72-3.77-10.72-10.72v-94.98Z"/><path class="aw" d="M257.76,317.89c0-23.71,17.82-41.07,42.58-41.07s42.73,17.36,42.73,41.07-17.97,41.07-42.73,41.07-42.58-17.21-42.58-41.07Zm64.47,0c0-12.53-9.21-21.74-21.89-21.74s-21.74,9.21-21.74,21.74,9.21,21.74,21.74,21.74,21.89-9.21,21.89-21.74Z"/></g></g><path class="aw" d="M235.61,0c-12,0-20.63,8.42-20.63,19.9,0,2.78,.49,5.39,1.43,7.72h-.14l.31,.42c1.15,2.68,2.85,5.04,5.01,6.85,1.99,1.74,4.41,3.02,7.09,3.86l4.79,6.55c1.01,1.38,3.06,1.38,4.07,0l4.73-6.45c2.52-.75,4.82-1.87,6.77-3.4,4.56-3.55,7.31-9.05,7.31-15.55,0-11.48-8.73-19.9-20.74-19.9Zm7.48,27.62c-1.88,1.81-4.49,2.85-7.48,2.85s-5.53-1.04-7.41-2.85c-1.95-1.91-3.13-4.59-3.13-7.72,0-6.05,4.49-10.54,10.54-10.54s10.65,4.49,10.65,10.54c0,3.13-1.18,5.81-3.17,7.72Z"/><path class="aw" d="M223.21,258.55c0-6.64,5.44-12.08,12.08-12.08s12.08,5.43,12.08,12.08-5.44,12.08-12.08,12.08-12.08-5.44-12.08-12.08Z"/></g></g></g></g><g id="ad"/></svg>